<?xml version="1.0" encoding="UTF-8" standalone="no"?>
<svg
   xmlns:dc="http://purl.org/dc/elements/1.1/"
   xmlns:cc="http://creativecommons.org/ns#"
   xmlns:rdf="http://www.w3.org/1999/02/22-rdf-syntax-ns#"
   xmlns:svg="http://www.w3.org/2000/svg"
   xmlns="http://www.w3.org/2000/svg"
   xmlns:sodipodi="http://sodipodi.sourceforge.net/DTD/sodipodi-0.dtd"
   xmlns:inkscape="http://www.inkscape.org/namespaces/inkscape"
   version="1.1"
   id="svg2"
   viewBox="0 0 200 200"
   height="200"
   width="200"
   inkscape:version="0.91 r13725"
   sodipodi:docname="Codefishing.svg">
  <sodipodi:namedview
     pagecolor="#ffffff"
     bordercolor="#666666"
     borderopacity="1"
     objecttolerance="10"
     gridtolerance="10"
     guidetolerance="10"
     inkscape:pageopacity="0"
     inkscape:pageshadow="2"
     inkscape:window-width="1920"
     inkscape:window-height="1018"
     id="namedview24"
     showgrid="false"
     inkscape:zoom="2.8284271"
     inkscape:cx="78.630162"
     inkscape:cy="50.556536"
     inkscape:window-x="-8"
     inkscape:window-y="-8"
     inkscape:window-maximized="1"
     inkscape:current-layer="svg2"
     showguides="false" />
  <defs
     id="defs4" />
  <metadata
     id="metadata7">
    <rdf:RDF>
      <cc:Work
         rdf:about="">
        <dc:format>image/svg+xml</dc:format>
        <dc:type
           rdf:resource="http://purl.org/dc/dcmitype/StillImage" />
        <dc:title />
      </cc:Work>
    </rdf:RDF>
  </metadata>
  <g
     id="g4201">
    <path
       id="ShirtBody"
       d="m 76.39871,86.90911 c -0.19558,-0.0446 -0.96757,-9.19635 -0.97543,-10.63186 0.51557,-5.08409 1.46001,-7.78253 2.77792,-10.22779 0.9071,-1.56398 1.87381,-2.61146 3.21903,-3.43417 0.55568,-1.57748 2.05537,-3.44296 2.23264,-4.5492 1.53908,0.50583 3.6738,3.67028 7.848,3.35094 -0.91316,2.38488 -0.85817,3.93752 0.58993,5.64258 1.46141,1.197 1.98369,1.43637 3.283,1.89404 1.39333,1.38304 3.64884,5.48225 3.91434,6.9448 0.71081,2.61435 1.46186,6.60155 2.12629,9.95505 -0.35687,-0.23735 -24.99582,1.64662 -25.01572,1.05561 z"
       style="fill:#f19c69;fill-opacity:1;fill-rule:evenodd;stroke:none;stroke-width:1px;stroke-linecap:butt;stroke-linejoin:round;stroke-opacity:1"
       inkscape:connector-curvature="0" />
    <path
       d="m 108.07614,92.20777 c 26,-11 33,10 24.64286,21.42857 6.4966,10.12368 -0.2928,20.94112 -8.92857,20.00002 -4.75383,23.8656 -29.25263,13.9791 -34.28572,5 -24.58121,4.2676 -28.42857,-6.42859 -32.14286,-18.92859 -10.28571,0.5 -20.28571,-17.5 -4.64285,-24.64286 2.35714,-11.85714 22.35714,-15.85714 30.35714,-8.48214 9.05895,-2.11581 22.16887,-2.67953 25,5.625 z"
       style="opacity:1;fill:#5ec4e6;fill-opacity:1;fill-rule:evenodd;stroke:#5ec4e6;stroke-width:1px;stroke-linecap:butt;stroke-linejoin:miter;stroke-opacity:1"
       id="Cloud"
       inkscape:connector-curvature="0" />
    <path
       id="Head"
       d="m 83.14463,42.62023 c -0.0797,0.15416 -2.55449,1.46023 -2.57904,1.63203 0.57136,2.48634 -0.005,4.75392 0.0347,7.14999 0.29825,1.76869 0.32275,4.40968 2.65165,6.69226 3.49806,2.40549 5.28179,3.51688 7.97073,3.59551 3.78158,-0.79808 5.27817,-9.15721 5.28752,-10.91912 0.23981,-2.2709 0.24054,-4.66067 0.0284,-6.78696 -0.7886,-1.48394 -2.9992,-1.64985 -3.91118,-1.54048 0.14413,0.1619 -1.87745,-0.0981 -3.09019,-0.35746 -2.78726,-0.586 -6.17038,0.10433 -6.39263,0.53423 z"
       style="fill:#58360a;fill-opacity:1;fill-rule:evenodd;stroke:#512f05;stroke-width:0.5;stroke-linecap:butt;stroke-linejoin:round;stroke-miterlimit:4;stroke-dasharray:none;stroke-opacity:1"
       inkscape:connector-curvature="0" />
    <path
       id="Hair"
       d="m 99.87529,46.76186 c 2.62538,-1.48972 1.9611,-2.52768 2.35198,-3.52405 0.43871,-1.49238 0.86486,-1.64006 -0.64735,-3.96371 1.242,-1.48121 2.17008,-4.7741 -1.23743,-6.09879 C 98.75,32.5 98.50533,34.32459 97.6985,34.3334 96.75,34.5 95.75,34.5 95.16545,32.67023 94.75,29.5 93.63216,30.4508 93.04413,30.06909 91.75,30.5 91.18068,32.85355 89.59699,32.18409 89.75,30.5 84.63388,30.32322 84.97961,31.84071 c -3.34573,1.48251 -4.34573,0.48251 -5.11166,0.009 -2.11275,-2.41014 -4.552,0.79131 -4.552,0.83338 -0.56595,0.81714 -1.56595,0.81714 -0.85231,2.87893 -1.71364,-0.0618 -3.96276,-0.0869 -2.39911,3.15673 -2.31453,-0.21852 -1.66808,3.16306 -0.70079,3.18198 -1.2236,0.7988 -1.58764,2.0694 -1.38511,3.28299 0.77137,0.31628 1.76884,1.10486 1.99119,1.10486 -1.63005,0.89309 -1.30415,1.52188 -1.30688,2.84736 0.59453,0.98222 0.0871,1.36406 1.81828,0.99753 2.26878,1.36676 0.94295,1.42742 3.88908,0.81444 -2.8e-4,0.002 -5.5e-4,0.003 -8.3e-4,0.005 -0.15037,0.8524 -0.76748,1.83114 -0.2012,2.86791 2.28585,2.18141 2.65397,0.88794 2.72741,2.22234 1.85432,-0.54316 1.47889,1.11235 2.72789,1.11565 -0.10219,-1.06278 -0.0463,-1.84567 0.19898,-1.76986 -0.18442,-0.59364 -0.61769,-0.83708 -0.84343,-1.3345 -1.28075,-3.56537 -0.42673,-4.59781 -0.12627,-6.31345 -0.50386,-1.81395 0.0398,-2.46123 0.42932,-2.9547 0.43586,-0.51397 1.46783,-2.28607 2.09607,-1.33845 0.37176,1.05238 4.37176,-0.94762 5.54321,0.34724 1.15268,1.71704 -0.17145,2.70514 0.89651,3.08727 0.57908,0.616 1.53429,2.06013 1.37001,1.67938 0.10953,-0.55998 0.17083,-1.49574 0.0189,-1.8309 -1.15342,-1.24279 0.07,-2.0359 0.75761,-3.15672 0.80437,0.5343 3.82512,-1.40342 4.46993,1.73619 0.49232,2.41121 -0.0453,3.64181 0.18719,5.19582 1.17645,-1.80184 2.12835,-3.0059 3.25364,-3.74372 z"
       style="fill:#000000;fill-opacity:1;fill-rule:evenodd;stroke:#000000;stroke-width:0.5;stroke-linecap:butt;stroke-linejoin:round;stroke-miterlimit:4;stroke-dasharray:none;stroke-opacity:1"
       inkscape:connector-curvature="0" />
    <path
       id="MouthSmile"
       d="M 91.84375,56.49998 C 90.56734,57.85072 89.26707,57.39856 88.5,56.34373"
       style="opacity:1;fill:none;fill-opacity:1;stroke:#000000;stroke-width:0.5;stroke-linecap:round;stroke-linejoin:round;stroke-miterlimit:4;stroke-dasharray:none;stroke-opacity:1"
       inkscape:connector-curvature="0" />
    <path
       id="Nose"
       d="m 89.4375,53.21873 c 1.98213,-0.0535 1.69957,-0.82757 2.125,-1.25"
       style="opacity:1;fill:none;fill-opacity:1;stroke:#000000;stroke-width:0.25;stroke-linecap:round;stroke-linejoin:round;stroke-miterlimit:4;stroke-dasharray:none;stroke-opacity:1"
       inkscape:connector-curvature="0" />
    <path
       style="opacity:1;fill:#000000;fill-opacity:1;stroke:none;stroke-width:0.5;stroke-linejoin:round;stroke-miterlimit:4;stroke-dasharray:none;stroke-opacity:1"
       d="m 92.05733,49.52364 c 0,1.07005 0.60162,1.9375 1.34375,1.9375 0.74213,0 1.16854,-1.01058 1.24984,-1.91541 0.0166,-0.18451 0.029,-0.35429 0.002,-0.57916 -0.16201,-1.35055 0.63615,-1.25482 0.4274,-1.29909 -0.78875,-0.16727 -1.13011,-0.13492 -1.67937,-0.0813 -0.73862,0.0721 -1.34375,0.86745 -1.34375,1.9375 z"
       id="LeftEyeOpen"
       inkscape:connector-curvature="0" />
    <path
       id="RightEyeOpen"
       d="m 88,49.65623 c 0,1.07005 -0.60162,1.9375 -1.34375,1.9375 -0.74213,0 -1.16854,-1.01058 -1.24984,-1.91541 -0.0166,-0.18451 -0.029,-0.35429 -0.002,-0.57916 0.16201,-1.35055 -0.63615,-1.25482 -0.4274,-1.29909 0.78875,-0.16727 1.13011,-0.13492 1.67937,-0.0813 0.73862,0.0721 1.34375,0.86745 1.34375,1.9375 z"
       style="opacity:1;fill:#000000;fill-opacity:1;stroke:none;stroke-width:0.5;stroke-linejoin:round;stroke-miterlimit:4;stroke-dasharray:none;stroke-opacity:1"
       inkscape:connector-curvature="0" />
    <path
       id="LeftHand"
       d="m 104.96875,78.64061 c 0,1.97614 -1.46207,3.57812 -3.26563,3.57812 -1.80355,0 -0.15869,-1.66566 0.85938,-3.35937 0.5,-0.83182 -2.00167,-1.41385 -2.18415,-2.06137 -0.18248,-0.64751 1.65602,-2.08527 2.35602,-1.51676 1.61606,1.3125 2.23438,1.38323 2.23438,3.35938 z"
       style="opacity:1;fill:#58360a;fill-opacity:1;stroke:#512f05;stroke-width:0.5;stroke-linecap:round;stroke-linejoin:round;stroke-miterlimit:4;stroke-dasharray:none;stroke-opacity:1"
       inkscape:connector-curvature="0" />
    <path
       id="PoleLine"
       d="m 159.9983,30.99717 c 1.23744,43.66385 0.44195,44.90128 0.44195,44.90128 l -0.70711,3.0936"
       style="fill:none;fill-rule:evenodd;stroke:#000000;stroke-width:0.5;stroke-linecap:round;stroke-linejoin:round;stroke-miterlimit:4;stroke-dasharray:none;stroke-opacity:1"
       inkscape:connector-curvature="0" />
    <path
       id="Pole"
       d="m 99,81.125 c 5.31122,-8.27923 9.39537,-14.2275 12.40533,-18.86742 5.25738,-7.19509 10.02661,-12.40126 17.09467,-17.63258 15.16532,-9.30594 19.20778,-9.68189 31.85599,-14.19747 l 0.0815,0.3381 c -5.44386,1.7394 -26.87056,9.96614 -34.98927,18.35547 -6.1816,5.47003 -12.10316,13.27033 -16.69822,19.6289 -2.25734,3.35329 -5.07292,8.01479 -8.125,13 C 99.74367,81.7201 99.65771,81.47227 99,81.125 Z"
       style="fill:#783d0a;fill-opacity:1;fill-rule:evenodd;stroke:none;stroke-width:1px;stroke-linecap:butt;stroke-linejoin:miter;stroke-opacity:1"
       inkscape:connector-curvature="0" />
    <path
       id="RightHand"
       d="m 102.969,80.88517 c 0,3.03757 -1.94699,3.59965 -4.2942,3.59965 -2.34721,0 -2.77104,-1.95283 -1.73093,-3.95321 0.77588,-1.4922 1.95175,-3.15237 2.68969,-3.91737 1.49761,-1.55251 1.16257,1.51097 1.16257,1.51097 -0.54637,1.53853 -1.05894,1.26488 -1.4584,2.62738 0,0 0.94066,1.26026 1.28646,0.44451 0.65521,-1.5457 2.34482,-1.07132 2.34481,-0.31193 z"
       style="opacity:1;fill:#58360a;fill-opacity:1;stroke:#512f05;stroke-width:0.5;stroke-linecap:round;stroke-linejoin:round;stroke-miterlimit:4;stroke-dasharray:none;stroke-opacity:1"
       inkscape:connector-curvature="0" />
    <path
       id="RightEyeClosed"
       d="m 88,49.73264 c -0.24219,-0.12858 -0.32909,-0.18671 -1.3125,-0.20118 -0.36184,-0.005 -0.86385,-0.0713 -1.28109,0.2053 -0.0318,0.0211 -0.029,-0.0661 -0.002,-0.10801 0.16201,-0.25186 -0.62052,-0.2965 -0.41177,-0.30476 0.78875,-0.0312 1.11448,0.0373 1.66374,0.0473 0.73862,0.0134 1.34375,0.16177 1.34375,0.36132 z"
       style="opacity:1;fill:#000000;fill-opacity:1;stroke:none;stroke-width:0.5;stroke-linejoin:round;stroke-miterlimit:4;stroke-dasharray:none;stroke-opacity:1"
       inkscape:connector-curvature="0" />
    <path
       id="LeftEyeClosed"
       d="m 92.05713,49.73264 c 0.24219,-0.12858 0.32909,-0.18671 1.3125,-0.20118 0.36184,-0.005 0.86385,-0.0713 1.28109,0.2053 0.0318,0.0211 0.029,-0.0661 0.002,-0.10801 -0.16201,-0.25186 0.62052,-0.2965 0.41177,-0.30476 -0.78875,-0.0312 -1.11448,0.0373 -1.66374,0.0473 -0.73862,0.0134 -1.34375,0.16177 -1.34375,0.36132 z"
       style="opacity:1;fill:#000000;fill-opacity:1;stroke:none;stroke-width:0.5;stroke-linejoin:round;stroke-miterlimit:4;stroke-dasharray:none;stroke-opacity:1"
       inkscape:connector-curvature="0" />
    <path
       id="HairStatic"
       d="m 97.47727,42.30031 c -13.80615,-5.02039 -19.71683,-2.62684 -20.35697,5.2726 0.0636,2.61661 -0.0754,5.17164 1.77538,8.47025 1.85432,-0.54316 1.47889,1.11235 2.72789,1.11565 -0.10219,-1.06278 -0.0463,-1.84567 0.19898,-1.76986 -0.18442,-0.59364 -0.61769,-0.83708 -0.84343,-1.3345 -1.28075,-3.56537 -0.42673,-4.59781 -0.12627,-6.31345 -0.50386,-1.81395 0.0398,-2.46123 0.42932,-2.9547 0.43586,-0.51397 1.46783,-2.28607 2.09607,-1.33845 0.37176,1.05238 4.37176,-0.94762 5.54321,0.34724 1.15268,1.71704 -0.17145,2.70514 0.89651,3.08727 0.57908,0.616 1.53429,2.06013 1.37001,1.67938 0.10953,-0.55998 0.17083,-1.49574 0.0189,-1.8309 -1.15342,-1.24279 0.07,-2.0359 0.75761,-3.15672 0.80437,0.5343 3.82512,-1.40342 4.46993,1.73619 0.49232,2.41121 -0.0453,3.64181 0.18719,5.19582 2.80266,-6.45909 0.51836,-6.34379 0.85567,-8.20582 z"
       style="fill:#000000;fill-opacity:1;fill-rule:evenodd;stroke:#000000;stroke-width:0.5;stroke-linecap:butt;stroke-linejoin:round;stroke-miterlimit:4;stroke-dasharray:none;stroke-opacity:1"
       inkscape:connector-curvature="0" />
    <path
       id="MouthStrug"
       d="M 91.84375,56.49998 C 91.06734,54.97572 90.07957,56.21106 88.5,56.34373"
       style="opacity:1;fill:none;fill-opacity:1;stroke:#000000;stroke-width:0.5;stroke-linecap:round;stroke-linejoin:round;stroke-miterlimit:4;stroke-dasharray:none;stroke-opacity:1"
       inkscape:connector-curvature="0" />
    <path
       id="MouthFlat"
       d="M 91.84375,56.49998 C 90.4135,56.41418 89.98351,56.42238 88.5,56.34373"
       style="opacity:1;fill:none;fill-opacity:1;stroke:#000000;stroke-width:0.5;stroke-linecap:round;stroke-linejoin:round;stroke-miterlimit:4;stroke-dasharray:none;stroke-opacity:1"
       inkscape:connector-curvature="0" />
    <text
       transform="matrix(0,1,-1,0,0,0)"
       sodipodi:linespacing="125%"
       id="code"
       y="-158.49294"
       x="134.13263"
       style="font-style:normal;font-weight:normal;font-size:5px;line-height:125%;font-family:sans-serif;letter-spacing:0px;word-spacing:0px;fill:#000000;fill-opacity:1;stroke:none;stroke-width:1px;stroke-linecap:butt;stroke-linejoin:miter;stroke-opacity:1"
       xml:space="preserve"><tspan
         y="-158.49294"
         x="134.13263"
         id="tspan4171"
         sodipodi:role="line">&lt;h1&gt;Hello World!&lt;/h1&gt;</tspan></text>
  </g>
</svg>
