<?xml version="1.0" encoding="UTF-8" standalone="no"?>
<!-- Created with Inkscape (http://www.inkscape.org/) -->

<svg
   xmlns:dc="http://purl.org/dc/elements/1.1/"
   xmlns:cc="http://creativecommons.org/ns#"
   xmlns:rdf="http://www.w3.org/1999/02/22-rdf-syntax-ns#"
   xmlns:svg="http://www.w3.org/2000/svg"
   xmlns="http://www.w3.org/2000/svg"
   xmlns:xlink="http://www.w3.org/1999/xlink"
   xmlns:sodipodi="http://sodipodi.sourceforge.net/DTD/sodipodi-0.dtd"
   xmlns:inkscape="http://www.inkscape.org/namespaces/inkscape"
   width="245.89011"
   height="283.67416"
   viewBox="0 0 245.89011 283.67417"
   id="svg2"
   version="1.1"
   inkscape:version="0.91 r13725"
   sodipodi:docname="FroPieGraph.svg"
   inkscape:export-filename="C:\xampp\htdocs\Portfolio\img\FroPieGraph.png"
   inkscape:export-xdpi="90"
   inkscape:export-ydpi="90">
  <defs
     id="defs4">
    <linearGradient
       inkscape:collect="always"
       id="linearGradient4167">
      <stop
         id="stop4171"
         offset="0"
         style="stop-color:#5c4536;stop-opacity:1" />
      <stop
         style="stop-color:#543f32;stop-opacity:1"
         offset="0.16741629"
         id="stop4193" />
      <stop
         id="stop4175"
         offset="0.53837395"
         style="stop-color:#4b3a30;stop-opacity:1" />
      <stop
         id="stop4173"
         offset="0.82600021"
         style="stop-color:#3e2e27;stop-opacity:1" />
      <stop
         style="stop-color:#3b2727;stop-opacity:1"
         offset="0.91633087"
         id="stop4189" />
      <stop
         id="stop4169"
         offset="1"
         style="stop-color:#372e2e;stop-opacity:1;" />
    </linearGradient>
    <radialGradient
       inkscape:collect="always"
       xlink:href="#linearGradient4167"
       id="radialGradient4195"
       cx="189.50351"
       cy="814.3465"
       fx="189.50351"
       fy="814.3465"
       r="122.94506"
       gradientTransform="matrix(1,0,0,0.97622821,0,19.212368)"
       gradientUnits="userSpaceOnUse" />
  </defs>
  <sodipodi:namedview
     id="base"
     pagecolor="#ffffff"
     bordercolor="#666666"
     borderopacity="1.0"
     inkscape:pageopacity="0.0"
     inkscape:pageshadow="2"
     inkscape:zoom="2.8284271"
     inkscape:cx="103.69141"
     inkscape:cy="143.1251"
     inkscape:document-units="px"
     inkscape:current-layer="svg2"
     showgrid="false"
     units="px"
     inkscape:window-width="1920"
     inkscape:window-height="1018"
     inkscape:window-x="-8"
     inkscape:window-y="-8"
     inkscape:window-maximized="1"
     showguides="false"
     fit-margin-top="0"
     fit-margin-left="0"
     fit-margin-right="0"
     fit-margin-bottom="0" />
  <metadata
     id="metadata7">
    <rdf:RDF>
      <cc:Work
         rdf:about="">
        <dc:format>image/svg+xml</dc:format>
        <dc:type
           rdf:resource="http://purl.org/dc/dcmitype/StillImage" />
        <dc:title></dc:title>
      </cc:Work>
    </rdf:RDF>
  </metadata>
  <g
     inkscape:label="Layer 1"
     inkscape:groupmode="layer"
     id="layer1"
     transform="translate(-68.558456,-688.17793)">
    <path
       style="fill:#683b29;fill-opacity:1;fill-rule:evenodd;stroke:#000000;stroke-width:1px;stroke-linecap:butt;stroke-linejoin:miter;stroke-opacity:1"
       d="m 233.13343,921.24096 c 3.78979,0.67421 -2.91163,7.70964 -0.43842,7.38984 9.82351,-1.27023 5.95547,16.1363 -2.38019,13.41545 -3.12873,17.70121 -27.95044,30.23794 -44.95178,29.2511 -20.25721,-1.94319 -33.14898,-13.66116 -38.89088,-29.04189 -12.28664,1.97038 -11.6013,-16.34384 -2.21161,-15.23318 0,0 0.0501,-6.13848 0.0511,-8.75046"
       id="face"
       inkscape:connector-curvature="0"
       sodipodi:nodetypes="csccccc" />
    <path
       style="fill:url(#radialGradient4195);fill-opacity:1;fill-rule:evenodd;stroke:#000000;stroke-width:1px;stroke-linecap:butt;stroke-linejoin:miter;stroke-opacity:1"
       d="m 233.07349,927.58299 c -1.48406,-0.24824 -2.92553,-1.20634 -5.06853,-4.38643 -4.26451,3.19668 -10.29201,3.3161 -15.49412,-0.13393 -2.53134,1.45696 -7.3631,2.85109 -12.6269,-1.51522 -6.69831,3.29088 -9.95489,1.8674 -14.17518,-0.6609 -5.97009,3.14971 -7.78204,1.54143 -12.04284,0.0742 -1.53951,1.34348 -7.79947,2.75875 -10.18709,-0.81649 -5.8187,1.59491 -6.20324,5.66743 -13.174,-0.36458 -2.24739,2.29637 -5.76623,6.59879 -9.90835,6.19499 -4.93445,-0.3944 -11.30717,-3.2909 -10.70959,-7.31431 -4.02899,-0.14872 -10.72555,2.12116 -15.19004,-10.60443 l -11.37213,-5.25201 c -1.76055,-1.19233 -3.92157,-7.89903 -4.5457,-10.796 -1.4882,-5.5014 -5.248266,-3.08529 -9.79822,-7.69343 -1.40002,-1.74072 0.787295,-11.17013 -3.353245,-14.35025 -7.135243,-4.29267 -9.152874,-9.66995 -8.723356,-21.44364 -6.441396,-4.09007 -2.435738,-9.59499 -2.344181,-12.15246 -4.616816,-6.71993 -4.219683,-11.74883 -2.430839,-18.38933 -4.968383,-9.24232 -2.997771,-12.60189 2.176123,-17.49122 -4.729235,-14.22453 0.88389,-8.78485 5.629354,-21.16244 -4.312247,-24.18631 2.721908,-27.74047 22.863594,-42.05648 6.28251,-6.13221 4.53361,-21.68119 19.7645,-18.96882 9.41022,-3.40264 13.55615,-15.0718 21.41715,-19.07824 6.97436,-3.35727 32.90499,-6.90215 38.70496,-1.10206 21.48891,-24.26766 33.5825,5.77448 48.05839,6.89303 18.76992,-2.92755 24.82517,14.79634 29.33504,16.62691 18.93074,-3.7213 15.43212,12.7388 20.8508,19.25418 14.9926,9.74156 20.36105,29.61967 19.40664,35.70215 14.35303,6.31873 19.25121,15.81257 6.32089,26.31383 -0.21288,7.15174 5.84308,24.19427 -2.04605,25.56019 3.60623,7.14473 3.56218,27.0977 -8.81563,36.73314 -7.61696,10.09321 -7.74902,31.0462 -18.15574,25.28971 -5.95433,10.7381 -7.31573,17.83973 -14.03445,17.35643 2.80458,7.14637 -11.99556,8.58629 -11.99556,8.58629 -12.53748,3.59471 3.80369,9.29205 -8.12751,8.70807 -2.36001,2.75439 -2.28831,1.03072 -5.69164,0.71491 -2.49232,1.27546 -3.97284,2.24105 -4.51655,1.72464 z"
       id="fro"
       inkscape:connector-curvature="0"
       sodipodi:nodetypes="ccccccccccccccccccccccccccccccccccccc" />
    <path
       style="fill:none;fill-rule:evenodd;stroke:#000000;stroke-width:1px;stroke-linecap:butt;stroke-linejoin:miter;stroke-opacity:1"
       d="M 80.812203,757.65016 188.77099,811.45093 163.89725,920.03218"
       id="path4145"
       inkscape:connector-curvature="0"
       sodipodi:nodetypes="ccc" />
    <path
       style="fill:none;fill-rule:evenodd;stroke:#000000;stroke-width:1px;stroke-linecap:butt;stroke-linejoin:miter;stroke-opacity:1"
       d="M 189.15106,812.19839 162.8871,695.52578"
       id="path4147"
       inkscape:connector-curvature="0" />
    <path
       style="fill:none;fill-opacity:1;fill-rule:evenodd;stroke:#000000;stroke-width:1px;stroke-linecap:butt;stroke-linejoin:miter;stroke-opacity:1"
       d="m 189.16122,811.07593 72.46829,-89.79126"
       id="path4149"
       inkscape:connector-curvature="0"
       sodipodi:nodetypes="cc" />
    <path
       style="fill:none;fill-rule:evenodd;stroke:#000000;stroke-width:1px;stroke-linecap:butt;stroke-linejoin:miter;stroke-opacity:1"
       d="m 189.14599,811.44839 116.42515,-7.58375 -0.50507,-0.50508"
       id="path4151"
       inkscape:connector-curvature="0"
       sodipodi:nodetypes="ccc" />
    <path
       style="fill:none;fill-rule:evenodd;stroke:#000000;stroke-width:1px;stroke-linecap:butt;stroke-linejoin:miter;stroke-opacity:1"
       d="M 189.15106,811.69332 300.0153,859.17049"
       id="path4153"
       inkscape:connector-curvature="0" />
    <text
       xml:space="preserve"
       style="font-style:normal;font-weight:normal;font-size:12.5px;line-height:125%;font-family:sans-serif;letter-spacing:0px;word-spacing:0px;fill:#7e6e63;fill-opacity:1;stroke:none;stroke-width:1px;stroke-linecap:butt;stroke-linejoin:miter;stroke-opacity:1"
       x="100.25764"
       y="840.73523"
       id="htmlText"
       sodipodi:linespacing="125%"><tspan
         sodipodi:role="line"
         id="tspan4161"
         x="100.25764"
         y="840.73523">HTML5</tspan></text>
    <text
       xml:space="preserve"
       style="font-style:normal;font-weight:normal;font-size:13.75px;line-height:125%;font-family:sans-serif;letter-spacing:0px;word-spacing:0px;fill:#7e6e63;fill-opacity:1;stroke:none;stroke-width:1px;stroke-linecap:butt;stroke-linejoin:miter;stroke-opacity:1"
       x="195.21198"
       y="864.72632"
       id="cssText"
       sodipodi:linespacing="125%"><tspan
         sodipodi:role="line"
         id="tspan4165"
         x="195.21198"
         y="864.72632">CSS3</tspan></text>
    <text
       xml:space="preserve"
       style="font-style:normal;font-weight:normal;font-size:12.5px;line-height:125%;font-family:sans-serif;letter-spacing:0px;word-spacing:0px;fill:#7e6e63;fill-opacity:1;stroke:none;stroke-width:1px;stroke-linecap:butt;stroke-linejoin:miter;stroke-opacity:1"
       x="569.88989"
       y="493.20639"
       id="jsText"
       sodipodi:linespacing="125%"
       transform="matrix(0.75377355,0.65713426,-0.65713426,0.75377355,0,0)"><tspan
         sodipodi:role="line"
         id="tspan4169"
         x="569.88989"
         y="493.20639">Javascript</tspan></text>
    <text
       xml:space="preserve"
       style="font-style:normal;font-weight:normal;font-size:12.5px;line-height:125%;font-family:sans-serif;letter-spacing:0px;word-spacing:0px;fill:#7e6e63;fill-opacity:1;stroke:none;stroke-width:1px;stroke-linecap:butt;stroke-linejoin:miter;stroke-opacity:1"
       x="-704.48334"
       y="382.07095"
       id="aiText"
       sodipodi:linespacing="125%"
       transform="matrix(0.24361501,-0.96987202,0.96987202,0.24361501,0,0)"><tspan
         sodipodi:role="line"
         id="tspan4181"
         x="-704.48334"
         y="382.07095">Illustrator</tspan></text>
    <text
       xml:space="preserve"
       style="font-style:normal;font-weight:normal;font-size:12.5px;line-height:125%;font-family:sans-serif;letter-spacing:0px;word-spacing:0px;fill:#7e6e63;fill-opacity:1;stroke:none;stroke-width:1px;stroke-linecap:butt;stroke-linejoin:miter;stroke-opacity:1"
       x="-138.64256"
       y="817.15796"
       id="psText"
       sodipodi:linespacing="125%"
       transform="matrix(0.90630779,-0.42261826,0.42261826,0.90630779,0,0)"><tspan
         sodipodi:role="line"
         id="tspan4185"
         x="-138.64256"
         y="817.15796">Photoshop</tspan></text>
    <text
       xml:space="preserve"
       style="font-style:normal;font-weight:normal;font-size:12.5px;line-height:125%;font-family:sans-serif;letter-spacing:0px;word-spacing:0px;fill:#7e6e63;fill-opacity:1;stroke:none;stroke-width:1px;stroke-linecap:butt;stroke-linejoin:miter;stroke-opacity:1"
       x="367.46024"
       y="770.1474"
       id="wpText"
       sodipodi:linespacing="125%"
       transform="matrix(0.98480775,0.17364818,-0.17364818,0.98480775,0,0)"><tspan
         sodipodi:role="line"
         id="tspan4189"
         x="367.46024"
         y="770.1474">Wordpress</tspan></text>
    <path
       style="fill:none;fill-rule:evenodd;stroke:#000000;stroke-width:1px;stroke-linecap:round;stroke-linejoin:round;stroke-opacity:1"
       d="m 162.36939,934.01016 c 7.29872,3.60612 10.28615,3.17363 16.35185,0.0884"
       id="rightEye"
       inkscape:connector-curvature="0"
       sodipodi:nodetypes="cc" />
    <path
       style="fill:none;fill-rule:evenodd;stroke:#000000;stroke-width:1px;stroke-linecap:round;stroke-linejoin:round;stroke-opacity:1"
       d="m 199.75766,934.62888 c 5.55496,3.40397 10.94323,2.64086 16.26346,0.17678"
       id="leftEye"
       inkscape:connector-curvature="0"
       sodipodi:nodetypes="cc" />
    <path
       style="fill:none;fill-rule:evenodd;stroke:#000000;stroke-width:0.5;stroke-linecap:round;stroke-linejoin:miter;stroke-miterlimit:4;stroke-dasharray:none;stroke-opacity:1"
       d="m 176.33476,944.97032 c -2.797,1.32504 0.59641,5.11313 1.94454,3.0052 m 1.59099,-0.44194 c 0.89124,2.35354 8.03753,5.01922 10.07627,-0.26516 m 1.5026,1.06066 c 2.09513,1.06664 4.24522,-0.62558 2.74004,-2.91682"
       id="nose"
       inkscape:connector-curvature="0"
       sodipodi:nodetypes="cccccc" />
    <path
       style="fill:none;fill-rule:evenodd;stroke:#000000;stroke-width:1px;stroke-linecap:round;stroke-linejoin:miter;stroke-opacity:1"
       d="m 168.64496,957.16791 c 9.87651,4.6373 20.06145,5.05765 33.49919,0.0884"
       id="mouth"
       inkscape:connector-curvature="0"
       sodipodi:nodetypes="cc" />
    <path
       style="fill:none;fill-rule:evenodd;stroke:#000000;stroke-width:1px;stroke-linecap:butt;stroke-linejoin:miter;stroke-opacity:1"
       d="M 188.625,810.98716 117,718.11216"
       id="path4203"
       inkscape:connector-curvature="0"
       sodipodi:nodetypes="cc" />
    <text
       xml:space="preserve"
       style="font-style:normal;font-weight:normal;font-size:12.5px;line-height:125%;font-family:sans-serif;letter-spacing:0px;word-spacing:0px;fill:#7e6e63;fill-opacity:1;stroke:none;stroke-width:1px;stroke-linecap:butt;stroke-linejoin:miter;stroke-opacity:1"
       x="706.19635"
       y="176.86086"
       id="ajsText"
       sodipodi:linespacing="125%"
       transform="matrix(0.42261826,0.90630779,-0.90630779,0.42261826,0,0)"><tspan
         sodipodi:role="line"
         id="tspan4207"
         x="706.19635"
         y="176.86086">AngularJS</tspan></text>
  </g>
</svg>
