
<svg version="1.1" id="Gears" xmlns="http://www.w3.org/2000/svg" xmlns:xlink="http://www.w3.org/1999/xlink" viewBox="0 0 600 600" xml:space="preserve">

  <g
     class="GearGroup"
     transform="translate(467.02 606.94)">
    <path
       class="BigGear"
       style="fill:none;stroke:#000000;stroke-width:2.65510011;stroke-linejoin:round"
       d="m 269.8,-605.61 c -22.597,38.514 -28.065,65.645 -29.33,75.234 -12.347,-0.0594 -24.693,0.23895 -37.023,0.89648 -1.5035,-9.5414 -8.036,-36.378 -32.234,-73.789 -9.1197,0.85459 -18.221,1.8917 -27.299,3.1113 -15.357,41.93 -15.894,69.599 -15.426,79.26 -12.159,2.1463 -24.253,4.6456 -36.268,7.4941 -3.183,-9.1196 -14.403,-34.361 -44.893,-66.85 -8.8205,2.4692 -17.59,5.1166 -26.305,7.9375 -7.6234,43.999 -3.2087,71.318 -1.0234,80.74 -11.581,4.283 -23.035,8.9015 -34.348,13.85 -4.7602,-8.4047 -20.307,-31.235 -56.107,-57.758 -8.2379,4.0045 -16.394,8.1723 -24.465,12.504 0.3554,44.653 9.5777,70.747 13.41,79.627 -10.63,6.282 -21.077,12.871 -31.324,19.76 -6.1845,-7.4197 -25.557,-27.109 -65.518,-46.812 -7.3904,5.4111 -14.672,10.971 -21.84,16.674 8.3228,43.872 22.056,67.898 27.412,75.951 -9.3374,8.079 -18.438,16.428 -27.291,25.035 -7.4099,-6.1962 -29.987,-22.108 -72.824,-34.359 -6.3055,6.6438 -12.476,13.412 -18.51,20.303 16.023,41.681 33.823,62.87 40.531,69.838 -7.7448,9.6165 -15.207,19.456 -22.381,29.506 -8.3972,-4.7735 -33.453,-16.399 -77.789,-20.805 -5.0179,7.6629 -9.8814,15.425 -14.588,23.283 23.207,38.15 44.505,55.819 52.35,61.477 -5.9032,10.845 -11.49,21.86 -16.754,33.029 -9.1146,-3.1974 -35.843,-10.163 -80.254,-6.582 -3.569,8.4357 -6.9675,16.942 -10.195,25.514 29.646,33.393 53.757,46.977 62.486,51.143 -3.872,11.725 -7.403,23.558 -10.588,35.488 -9.539,-1.5186 -37.081,-3.6 -80.139,7.8535 -2.0054,8.9374 -3.8312,17.915 -5.4766,26.926 35.133,27.563 61.283,36.622 70.615,39.162 -1.7162,12.228 -3.0766,24.502 -4.0801,36.809 -9.6569,0.20909 -37.129,3.0795 -77.449,22.037 -0.37731,9.1518 -0.57204,18.311 -0.58204,27.471 39.489,20.847 66.837,25.091 76.473,25.924 0.49466,12.338 1.3485,24.659 2.5586,36.947 -9.4644,1.93 -35.982,9.6593 -72.27,35.512 1.2629,9.0721 2.7064,18.119 4.332,27.133 42.577,13.46 70.243,12.752 79.873,11.852 2.6897,12.051 5.7285,24.022 9.1133,35.896 -8.9676,3.589 -33.68,15.929 -64.768,47.846 2.8625,8.7008 5.9003,17.343 9.1094,25.922 44.259,5.5445 71.305,-0.18765 80.582,-2.8906 l 0.12305,0.29297 c 4.7982,11.377 9.9263,22.612 15.377,33.691 -8.1827,5.1325 -30.294,21.686 -55.184,58.641 4.3701,8.0499 8.9005,16.011 13.59,23.879 44.592,-2.3584 70.246,-12.74 78.945,-16.967 6.7525,10.337 13.803,20.476 21.145,30.404 -7.1348,6.5111 -25.933,26.748 -43.824,67.553 5.7372,7.1402 11.616,14.164 17.635,21.068 43.454,-10.283 66.842,-25.079 74.646,-30.791 8.4898,8.9656 17.238,17.683 26.234,26.141 -5.8575,7.6804 -20.741,30.947 -31.059,74.291 6.92,6.0011 13.958,11.863 21.113,17.582 40.92,-17.876 61.29,-36.611 67.949,-43.625 9.9543,7.3056 20.119,14.32 30.48,21.035 -4.392,8.6029 -14.882,34.155 -17.295,78.645 7.8803,4.669 15.853,9.1801 23.914,13.529 37.07,-24.896 53.766,-46.966 59.066,-55.057 11.099,5.4108 22.354,10.498 33.748,15.256 -2.7853,9.2489 -8.5447,36.262 -2.9746,80.467 8.5873,3.1869 17.237,6.203 25.945,9.043 32.029,-31.115 44.517,-55.812 48.287,-64.719 11.887,3.342 23.867,6.338 35.928,8.9844 -1.0891,9.5976 -1.9323,37.205 11.441,79.705 9.0184,1.6024 18.069,3.0242 27.145,4.2637 25.959,-36.334 33.836,-62.864 35.955,-72.301 12.292,1.1659 24.616,1.9754 36.955,2.4258 0.64214,9.6378 4.7427,36.952 25.49,76.381 9.1596,-0.0337 18.316,-0.24945 27.467,-0.65039 19.054,-40.385 22.069,-67.895 22.469,-77.559 12.303,-1.0477 24.571,-2.4527 36.793,-4.2129 2.3527,9.3682 11.264,35.513 38.719,70.604 9.0063,-1.6686 17.978,-3.5184 26.91,-5.5469 11.537,-43.138 9.5897,-70.744 8.2578,-80.324 11.918,-3.2276 23.74,-6.8008 35.451,-10.715 3.9877,8.7976 17.424,32.932 50.703,62.557 8.5637,-3.25 17.062,-6.673 25.488,-10.264 3.6487,-44.505 -3.1958,-71.32 -6.2168,-80.508 11.15,-5.3038 22.143,-10.929 32.967,-16.871 5.4945,7.9442 23.025,29.29 61.059,52.496 7.8457,-4.7268 15.596,-9.6108 23.246,-14.648 -4.3566,-44.441 -15.881,-69.602 -20.494,-78.104 10.024,-7.2095 19.837,-14.709 29.426,-22.488 6.8247,6.8354 27.885,24.708 69.451,40.75 6.8756,-6.0518 13.628,-12.24 20.256,-18.562 -12.222,-42.949 -28.052,-65.649 -34.109,-73.189 8.5756,-8.8835 16.892,-18.014 24.938,-27.381 7.9355,5.507 31.849,19.333 75.611,27.695 5.6846,-7.1822 11.223,-14.478 16.615,-21.883 -19.694,-40.077 -39.323,-59.584 -46.629,-65.922 6.8516,-10.272 13.403,-20.742 19.646,-31.395 8.7913,4.0016 34.789,13.336 79.342,13.75 4.3108,-8.0818 8.4582,-16.25 12.441,-24.498 -26.534,-35.916 -49.33,-51.605 -57.65,-56.537 4.9074,-11.33 9.4852,-22.8 13.727,-34.396 9.3645,2.3675 36.609,6.9091 80.52,-0.63868 2.7984,-8.7217 5.4227,-17.499 7.8691,-26.326 -32.52,-30.601 -57.753,-41.967 -66.82,-45.334 2.8054,-12.024 5.2606,-24.128 7.3633,-36.295 9.6368,0.65738 37.256,0.25919 79.113,-15.008 1.1962,-9.0812 2.21,-18.185 3.041,-27.307 -37.462,-24.302 -64.319,-30.98 -73.842,-32.674 0.61325,-12.332 0.86931,-24.68 0.76562,-37.027 9.5993,-1.0739 36.702,-6.395 75.16,-28.891 -0.44458,-9.1488 -1.0717,-18.289 -1.8828,-27.412 -41.199,-17.223 -68.816,-18.999 -78.488,-18.965 -1.5986,-12.243 -3.5527,-24.438 -5.8594,-36.568 9.2533,-2.7706 34.971,-12.847 68.795,-41.848 -2.071,-8.9224 -4.3209,-17.803 -6.748,-26.635 -43.612,-9.5897 -71.103,-6.4049 -80.613,-4.6445 -3.7591,-11.761 -7.8594,-23.412 -12.295,-34.936 8.6098,-4.3784 32.117,-18.884 60.219,-53.459 -3.6309,-8.4092 -7.4313,-16.743 -11.396,-25 -44.624,-1.6483 -71.103,6.3921 -80.146,9.8223 -5.7987,-10.901 -11.914,-21.632 -18.336,-32.178 7.6897,-5.8453 28.228,-24.315 49.705,-63.352 -5.0741,-7.6258 -10.3,-15.148 -15.676,-22.564 -44.201,6.3461 -68.82,18.985 -77.105,23.975 -7.652,-9.6905 -15.585,-19.157 -23.787,-28.387 6.5224,-7.1245 23.432,-28.965 37.594,-71.209 -6.3542,-6.5972 -12.84,-13.065 -19.453,-19.402 -42.357,14.136 -64.323,30.968 -71.584,37.357 -9.2593,-8.1684 -18.755,-16.066 -28.473,-23.684 5.1454,-8.1746 17.883,-32.681 24.273,-76.775 -7.43,-5.3566 -14.967,-10.565 -22.605,-15.619 -39.153,21.473 -57.76,41.958 -63.764,49.541 -10.569,-6.3839 -21.32,-12.459 -32.242,-18.219 3.6031,-8.962 11.759,-35.352 10.174,-79.879 -8.2671,-3.9438 -16.611,-7.7209 -25.029,-11.33 -34.689,28.118 -49.341,51.596 -53.895,60.129 -11.539,-4.3941 -23.204,-8.4511 -34.979,-12.168 1.945,-9.4613 5.2602,-36.884 -4.25,-80.412 -8.8384,-2.4043 -17.725,-4.6298 -26.652,-6.6777 -29.111,33.861 -39.334,59.578 -42.291,68.787 -12.138,-2.2631 -24.341,-4.1739 -36.59,-5.7285 0.22437,-9.6566 -1.4095,-37.229 -18.539,-78.359 -9.1257,-0.78752 -18.266,-1.3935 -27.416,-1.8145 z m 21.285,148.5 a 556.66,556.66 0 0 1 499.11,499.59 l -483.68,0 a 88.571,88.571 0 0 0 -15.42,-15.505 l 0,-484.08 z m -108.73,0.49609 0,483.67 a 88.571,88.571 0 0 0 -15.5,15.422 l -484.04,0 a 556.66,556.66 0 0 1 499.54,-499.09 z m -499.05,607.82 483.63,0 a 88.571,88.571 0 0 0 15.424,15.508 l 0,484.04 a 556.66,556.66 0 0 1 -499.05,-499.55 z m 623.29,0 484.08,0 a 556.66,556.66 0 0 1 -499.58,499.07 l 0,-483.64 a 88.571,88.571 0 0 0 15.508,-15.424 z"
       />
    <path
       class="SmallGear"
       style="fill:none;stroke:#000000;stroke-width:2.29929996;stroke-linejoin:round"
       d="m 1451.1,-28.638 c -19.57,33.354 -24.305,56.85 -25.4,65.155 -10.693,-0.05141 -21.385,0.20694 -32.063,0.77637 -1.302,-8.2631 -6.9593,-31.504 -27.916,-63.903 -7.8978,0.74009 -15.78,1.6383 -23.641,2.6945 -13.3,36.313 -13.764,60.274 -13.359,68.641 -10.53,1.8587 -21.004,4.0231 -31.408,6.4901 -2.7565,-7.8978 -12.473,-29.757 -38.878,-57.893 -7.6387,2.1384 -15.234,4.4311 -22.78,6.874 -6.6019,38.104 -2.7788,61.763 -0.8863,69.923 -10.029,3.7091 -19.949,7.7089 -29.746,11.994 -4.1224,-7.2787 -17.586,-27.05 -48.59,-50.019 -7.1341,3.468 -14.198,7.0774 -21.187,10.829 0.3077,38.67 8.2945,61.268 11.613,68.959 -9.2057,5.4403 -18.253,11.147 -27.127,17.112 -5.3559,-6.4256 -22.132,-23.477 -56.74,-40.541 -6.4003,4.6861 -12.707,9.5009 -18.914,14.44 7.2076,37.994 19.101,58.801 23.739,65.775 -8.0864,6.9966 -15.968,14.227 -23.635,21.681 -6.4171,-5.366 -25.97,-19.146 -63.067,-29.756 -5.4606,5.7536 -10.804,11.615 -16.03,17.583 13.876,36.096 29.291,54.447 35.101,60.481 -6.7071,8.3281 -13.17,16.849 -19.382,25.553 -7.2721,-4.134 -28.971,-14.202 -67.367,-18.017 -4.3457,6.6362 -8.5575,13.359 -12.634,20.164 20.098,33.039 38.542,48.34 45.336,53.24 -5.1123,9.3918 -9.9507,18.931 -14.509,28.604 -7.8935,-2.769 -31.041,-8.8016 -69.502,-5.7002 -3.0908,7.3055 -6.034,14.672 -8.8294,22.095 25.674,28.919 46.555,40.683 54.114,44.291 -3.3533,10.154 -6.4112,20.402 -9.1694,30.734 -8.261,-1.3151 -32.113,-3.1176 -69.402,6.8013 -1.7367,7.74 -3.3179,15.515 -4.7428,23.318 30.425,23.87 53.072,31.715 61.154,33.915 -1.4863,10.589 -2.6644,21.219 -3.5334,31.877 -8.3631,0.18107 -32.154,2.6669 -67.073,19.085 -0.32677,7.9257 -0.4954,15.858 -0.50407,23.79 34.199,18.054 57.882,21.729 66.227,22.451 0.42838,10.685 1.1679,21.355 2.2158,31.997 -8.1963,1.6715 -31.161,8.3652 -62.587,30.754 1.0937,7.8567 2.3438,15.691 3.7516,23.498 36.873,11.657 60.832,11.044 69.172,10.264 2.3292,10.436 4.961,20.803 7.8923,31.087 -7.7662,3.1081 -29.167,13.795 -56.09,41.435 2.479,7.5351 5.1098,15.019 7.8889,22.449 38.329,4.8016 61.751,-0.16251 69.786,-2.5034 l 0.1066,0.25373 c 4.1553,9.8527 8.5964,19.582 13.317,29.177 -7.0863,4.4449 -26.235,18.781 -47.79,50.784 3.7846,6.9714 7.7081,13.866 11.769,20.68 38.618,-2.0424 60.834,-11.033 68.368,-14.694 5.8478,8.9524 11.954,17.733 18.312,26.331 -6.1787,5.6388 -22.458,23.164 -37.953,58.502 4.9685,6.1836 10.06,12.266 15.272,18.246 37.63197,-8.9051 57.88597,-21.719 64.64597,-26.666 7.3524,7.7643 14.929,15.314 22.72,22.638 -5.0726,6.6514 -17.962,26.801 -26.897,64.338 5.9927,5.197 12.088,10.274 18.284,15.226 35.438,-15.481 53.078,-31.706 58.846,-37.78 8.6206,6.3268 17.423,12.401 26.397,18.217 -3.8035,7.4503 -12.888,29.579 -14.978,68.108 6.8246,4.0436 13.729,7.9503 20.71,11.717 32.104,-21.56 46.563,-40.673 51.153,-47.68 9.6117,4.6859 19.359,9.092 29.226,13.212 -2.4122,8.0098 -7.3999,31.403 -2.5761,69.686 7.4368,2.76 14.928,5.3719 22.469,7.8314 27.738,-26.946 38.552,-48.334 41.818,-56.048 10.294,2.8942 20.669,5.4887 31.114,7.7805 -0.9433,8.3118 -1.6736,32.22 9.9085,69.026 7.81,1.3877 15.648,2.619 23.508,3.6924 22.481,-31.466 29.302,-54.441 31.138,-62.614 10.645,1.0097 21.318,1.7106 32.004,2.1008 0.5561,8.3465 4.1072,32.001 22.075,66.147 7.9322,-0.029 15.862,-0.216 23.787,-0.5632 16.501,-34.974 19.112,-58.798 19.458,-67.167 10.655,-0.9073 21.28,-2.1242 31.864,-3.6485 2.0374,8.113 9.7551,30.755 33.531,61.144 7.7996,-1.445 15.569,-3.0471 23.305,-4.8038 9.9911,-37.358 8.3049,-61.266 7.1514,-69.562 10.321,-2.7951 20.56,-5.8895 30.702,-9.2793 3.4534,7.619 15.09,28.52 43.91,54.175 7.4163,-2.8145 14.776,-5.7789 22.073,-8.8885 3.1599,-38.542 -2.7676,-61.764 -5.3839,-69.722 9.6564,-4.5932 19.176,-9.4645 28.55,-14.611 4.7583,6.8799 19.94,25.365 52.878,45.463 6.7945,-4.0935 13.507,-8.3231 20.132,-12.686 -3.7729,-38.487 -13.753,-60.277 -17.748,-67.639 8.681,-6.2437 17.179,-12.738 25.483,-19.476 5.9104,5.9196 24.149,21.397 60.146,35.29 5.9545,-5.241 11.803,-10.6 17.542,-16.076 -10.584,-37.195 -24.294,-56.853 -29.54,-63.384 7.4266,-7.6933 14.629,-15.601 21.596,-23.712 6.8723,4.7692 27.582,16.742 65.481,23.985 4.923,-6.2199 9.7196,-12.539 14.389,-18.951 -17.056,-34.707 -34.054,-51.601 -40.382,-57.09 5.9337,-8.8958 11.607,-17.963 17.014,-27.188 7.6134,3.4654 30.128,11.549 68.712,11.908 3.7333,-6.999 7.325,-14.073 10.775,-21.216 -22.979,-31.104 -42.721,-44.691 -49.926,-48.962 4.2499,-9.8123 8.2144,-19.745 11.888,-29.788 8.1099,2.0503 31.704,5.9834 69.732,-0.5531 2.4236,-7.5532 4.6961,-15.155 6.8149,-22.799 -28.163,-26.501 -50.015,-36.344 -57.868,-39.26 2.4295,-10.413 4.5558,-20.895 6.3767,-31.432 8.3456,0.56931 32.264,0.22446 68.514,-12.997 1.036,-7.8645 1.9139,-15.748 2.6336,-23.648 -32.443,-21.046 -55.702,-26.829 -63.948,-28.296 0.5311,-10.68 0.7529,-21.374 0.6631,-32.066 8.3131,-0.93001 31.784,-5.5382 65.09,-25.02 -0.385,-7.9231 -0.9281,-15.838 -1.6306,-23.739 -35.679,-14.915 -59.596,-16.453 -67.972,-16.424 -1.3844,-10.603 -3.0765,-21.164 -5.0742,-31.669 8.0135,-2.3994 30.286,-11.125 59.578,-36.241 -1.7935,-7.727 -3.7421,-15.417 -5.844,-23.066 -37.769,-8.3049 -61.576,-5.5467 -69.813,-4.0223 -3.2553,-10.186 -6.8063,-20.275 -10.648,-30.255 7.4563,-3.7918 27.814,-16.354 52.151,-46.297 -3.1444,-7.2826 -6.4357,-14.5 -9.8696,-21.651 -38.645,-1.4275 -61.577,5.5356 -69.409,8.5063 -5.0217,-9.4406 -10.318,-18.733 -15.879,-27.867 6.6595,-5.0622 24.446,-21.057 43.046,-54.864 -4.3942,-6.6041 -8.92,-13.119 -13.575,-19.541 -38.279,5.4958 -59.6,16.441 -66.775,20.763 -6.6268,-8.3922 -13.497,-16.59 -20.6,-24.583 5.6485,-6.1699 20.293,-25.084 32.557,-61.668 -5.5027,-5.7133 -11.119,-11.315 -16.847,-16.803 -36.682,12.242 -55.705,26.819 -61.993,32.352 -8.0187,-7.074 -16.242,-13.914 -24.658,-20.51 4.4561,-7.0794 15.487,-28.303 21.021,-66.489 -6.4346,-4.6389 -12.962,-9.1494 -19.577,-13.526 -33.907,18.596 -50.021,36.337 -55.221,42.904 -9.153,-5.5286 -18.464,-10.79 -27.922,-15.778 3.1203,-7.7612 10.184,-30.616 8.8107,-69.177 -7.1595,-3.4155 -14.385,-6.6865 -21.676,-9.8121 -30.042,24.351 -42.73,44.683 -46.674,52.073 -9.9932,-3.8054 -20.095,-7.3188 -30.292,-10.538 1.6843,-8.1937 4.5554,-31.943 -3.6807,-69.639 -7.6543,-2.0822 -15.35,-4.0095 -23.082,-5.7831 -25.211,29.324 -34.064,51.596 -36.625,59.571 -10.512,-1.9599 -21.079,-3.6147 -31.688,-4.961 0.1943,-8.3628 -1.2207,-32.241 -16.055,-67.861 -7.9031,-0.68201 -15.819,-1.2068 -23.743,-1.5714 z m 18.433,128.61 a 482.08,482.08 0 0 1 432.23,432.65 l -418.88,0 a 76.705,76.705 0 0 0 -13.357,-13.43 l 0,-419.22 z m -94.165,0.42962 0,418.87 a 76.705,76.705 0 0 0 -13.43,13.357 l -419.19,0 a 482.08,482.08 0 0 1 432.69,-432.23 z m -432.19,526.39 418.83,0 a 76.705,76.705 0 0 0 13.357,13.43 l 0,419.18998 A 482.08,482.08 0 0 1 943.225,626.80162 Z m 539.79,0 419.23,0 a 482.08,482.08 0 0 1 -432.66,432.19998 l 0,-418.83998 a 76.705,76.705 0 0 0 13.43,-13.357 z"
        />
  </g>
</svg>
