<?xml version="1.0" encoding="UTF-8" standalone="no"?>
<svg
   xmlns:dc="http://purl.org/dc/elements/1.1/"
   xmlns:cc="http://creativecommons.org/ns#"
   xmlns:rdf="http://www.w3.org/1999/02/22-rdf-syntax-ns#"
   xmlns:svg="http://www.w3.org/2000/svg"
   xmlns="http://www.w3.org/2000/svg"
   xmlns:sodipodi="http://sodipodi.sourceforge.net/DTD/sodipodi-0.dtd"
   xmlns:inkscape="http://www.inkscape.org/namespaces/inkscape"
   version="1.1"
   id="svg2"
   viewBox="0 0 200 200"
   height="200"
   width="200"
   inkscape:version="0.91 r13725"
   sodipodi:docname="optimised.svg">
  <sodipodi:namedview
     pagecolor="#ffffff"
     bordercolor="#666666"
     borderopacity="1"
     objecttolerance="10"
     gridtolerance="10"
     guidetolerance="10"
     inkscape:pageopacity="0"
     inkscape:pageshadow="2"
     inkscape:window-width="1541"
     inkscape:window-height="751"
     id="namedview26"
     showgrid="false"
     inkscape:zoom="4.72"
     inkscape:cx="175.49759"
     inkscape:cy="105.7468"
     inkscape:window-x="0"
     inkscape:window-y="2"
     inkscape:window-maximized="1"
     inkscape:current-layer="svg2" />
  <style
     id="style3">
.s0{
	fill-opacity:1;
	fill-rule:evenodd;
	fill:#000;
	stroke-dasharray:none;
	stroke-linecap:butt;
	stroke-linejoin:round;
	stroke-miterlimit:4;
	stroke-opacity:1;
	stroke-width:0.5;
	stroke:#000;
}
.s1{
	fill:none;
	opacity:1;
	stroke-dasharray:none;
	stroke-linecap:round;
	stroke-linejoin:round;
	stroke-miterlimit:4;
	stroke-opacity:1;
	stroke-width:0.5;
	stroke:#000;
}
.s2{
	fill-opacity:1;
	fill:#000;
	opacity:1;
}
.s3{
	fill-opacity:1;
	fill:#58360a;
	opacity:1;
	stroke-dasharray:none;
	stroke-linecap:round;
	stroke-linejoin:round;
	stroke-miterlimit:4;
	stroke-opacity:1;
	stroke-width:0.5;
	stroke:#512f05;
}
.s4{
	fill:none;
	stroke-dasharray:none;
	stroke-linecap:round;
	stroke-linejoin:round;
	stroke-miterlimit:4;
	stroke-opacity:1;
	stroke-width:0.5;
	stroke:#000;
}

</style>
  <defs
     id="defs4" />
  <metadata
     id="metadata7">
    <rdf:RDF>
      <cc:Work
         rdf:about="">
        <dc:format>image/svg+xml</dc:format>
        <dc:type
           rdf:resource="http://purl.org/dc/dcmitype/StillImage" />
      </cc:Work>
    </rdf:RDF>
  </metadata>
  <g
     transform="translate(0,-852.36214)"
     id="FishingCloud">
    <path
       id="ShirtBody"
       d="m76.39871 939.27125c-0.19558-0.0446-0.96757-9.19635-0.97543-10.63186 0.51557-5.08409 1.46001-7.78253 2.77792-10.22779 0.9071-1.56398 1.87381-2.61146 3.21903-3.43417 0.55568-1.57748 2.05537-3.44296 2.23264-4.5492 1.53908 0.50583 3.6738 3.67028 7.848 3.35094-0.91316 2.38488-0.85817 3.93752 0.58993 5.64258 1.46141 1.197 1.98369 1.43637 3.283 1.89404 1.39333 1.38304 3.64884 5.48225 3.91434 6.9448 0.71081 2.61435 1.46186 6.60155 2.12629 9.95505-0.35687-0.23735-24.99582 1.64662-25.01572 1.05561z"
       style="fill-opacity:1;fill-rule:evenodd;fill:#f19c69" />
    <path
       d="m108.07614 944.56991c26-11 33 10 24.64286 21.42857 6.4966 10.12368-0.2928 20.94112-8.92857 20.00002-4.75383 23.8656-29.25263 13.9791-34.28572 5-24.58121 4.2676-28.42857-6.42859-32.14286-18.92859-10.28571 0.5-20.28571-17.5-4.64285-24.64286 2.35714-11.85714 22.35714-15.85714 30.35714-8.48214 9.05895-2.11581 22.16887-2.67953 25 5.625z"
       id="Cloud"
       style="fill-opacity:1;fill-rule:evenodd;fill:#5ec4e6;opacity:1;stroke-linecap:butt;stroke-linejoin:miter;stroke-opacity:1;stroke-width:1;stroke:#5ec4e6" />
    <path
       id="Head"
       d="m83.14463 894.98237c-0.0797 0.15416-2.55449 1.46023-2.57904 1.63203 0.57136 2.48634-0.005 4.75392 0.0347 7.14999 0.29825 1.76869 0.32275 4.40968 2.65165 6.69226 3.49806 2.40549 5.28179 3.51688 7.97073 3.59551 3.78158-0.79808 5.27817-9.15721 5.28752-10.91912 0.23981-2.2709 0.24054-4.66067 0.0284-6.78696-0.7886-1.48394-2.9992-1.64985-3.91118-1.54048 0.14413 0.1619-1.87745-0.0981-3.09019-0.35746-2.78726-0.586-6.17038 0.10433-6.39263 0.53423z"
       style="fill-opacity:1;fill-rule:evenodd;fill:#58360a;stroke-dasharray:none;stroke-linecap:butt;stroke-linejoin:round;stroke-miterlimit:4;stroke-opacity:1;stroke-width:0.5;stroke:#512f05" />
    <path
       id="Hair"
       d="m99.87529 899.124c2.62538-1.48972 1.9611-2.52768 2.35198-3.52405 0.43871-1.49238 0.86486-1.64006-0.64735-3.96371 1.242-1.48121 2.17008-4.7741-1.23743-6.09879-1.59249-0.67531-1.83716 1.14928-2.64399 1.15809-0.9485 0.1666-1.9485 0.1666-2.53305-1.66317-0.41545-3.17023-1.53329-2.21943-2.12132-2.60114-1.29413 0.43091-1.86345 2.78446-3.44714 2.115 0.15301-1.68409-4.96311-1.86087-4.61738-0.34338-3.34573 1.48251-4.34573 0.48251-5.11166 0.009-2.11275-2.41014-4.552 0.79131-4.552 0.83338-0.56595 0.81714-1.56595 0.81714-0.85231 2.87893-1.71364-0.0618-3.96276-0.0869-2.39911 3.15673-2.31453-0.21852-1.66808 3.16306-0.70079 3.18198-1.2236 0.7988-1.58764 2.0694-1.38511 3.28299 0.77137 0.31628 1.76884 1.10486 1.99119 1.10486-1.63005 0.89309-1.30415 1.52188-1.30688 2.84736 0.59453 0.98222 0.0871 1.36406 1.81828 0.99753 2.26878 1.36676 0.94295 1.42742 3.88908 0.81444-0.00028 0.002-0.00055 0.003-0.00083 0.005-0.15037 0.8524-0.76748 1.83114-0.2012 2.86791 2.28585 2.18141 2.65397 0.88794 2.72741 2.22234 1.85432-0.54316 1.47889 1.11235 2.72789 1.11565-0.10219-1.06278-0.0463-1.84567 0.19898-1.76986-0.18442-0.59364-0.61769-0.83708-0.84343-1.3345-1.28075-3.56537-0.42673-4.59781-0.12627-6.31345-0.50386-1.81395 0.0398-2.46123 0.42932-2.9547 0.43586-0.51397 1.46783-2.28607 2.09607-1.33845 0.37176 1.05238 4.37176-0.94762 5.54321 0.34724 1.15268 1.71704-0.17145 2.70514 0.89651 3.08727 0.57908 0.616 1.53429 2.06013 1.37001 1.67938 0.10953-0.55998 0.17083-1.49574 0.0189-1.8309-1.15342-1.24279 0.07-2.0359 0.75761-3.15672 0.80437 0.5343 3.82512-1.40342 4.46993 1.73619 0.49232 2.41121-0.0453 3.64181 0.18719 5.19582 1.17645-1.80184 2.12835-3.0059 3.25364-3.74372z"
       class="s0" />
    <path
       id="MouthSmile"
       d="M91.84375 908.86212C90.56734 910.21286 89.26707 909.7607 88.5 908.70587"
       class="s1" />
    <path
       id="Nose"
       d="m89.4375 905.58087c1.98213-0.0535 1.69957-0.82757 2.125-1.25"
       style="fill:none;opacity:1;stroke-dasharray:none;stroke-linecap:round;stroke-linejoin:round;stroke-miterlimit:4;stroke-opacity:1;stroke-width:0.25;stroke:#000" />
    <path
       d="m92.05733 901.88578c0 1.07005 0.60162 1.9375 1.34375 1.9375 0.74213 0 1.16854-1.01058 1.24984-1.91541 0.0166-0.18451 0.029-0.35429 0.002-0.57916-0.16201-1.35055 0.63615-1.25482 0.4274-1.29909-0.78875-0.16727-1.13011-0.13492-1.67937-0.0813-0.73862 0.0721-1.34375 0.86745-1.34375 1.9375z"
       id="LeftEyeOpen"
       class="s2" />
    <path
       id="RightEyeOpen"
       d="m88 902.01837c0 1.07005-0.60162 1.9375-1.34375 1.9375-0.74213 0-1.16854-1.01058-1.24984-1.91541-0.0166-0.18451-0.029-0.35429-0.002-0.57916 0.16201-1.35055-0.63615-1.25482-0.4274-1.29909 0.78875-0.16727 1.13011-0.13492 1.67937-0.0813 0.73862 0.0721 1.34375 0.86745 1.34375 1.9375z"
       class="s2" />
    <path
       id="LeftHand"
       d="m104.96875 931.00275c0 1.97614-1.46207 3.57812-3.26563 3.57812-1.80355 0-0.15869-1.66566 0.85938-3.35937 0.5-0.83182-2.00167-1.41385-2.18415-2.06137-0.18248-0.64751 1.65602-2.08527 2.35602-1.51676 1.61606 1.3125 2.23438 1.38323 2.23438 3.35938z"
       class="s3" />
    <path
       id="PoleLine"
       d="m159.9983 883.35931c1.23744 43.66385 0.44195 44.90128 0.44195 44.90128l-0.70711 3.0936"
       class="s4" />
    <path
       id="Pole"
       d="m99 933.48714c5.31122-8.27923 9.39537-14.2275 12.40533-18.86742 5.25738-7.19509 10.02661-12.40126 17.09467-17.63258 15.16532-9.30594 19.20778-9.68189 31.85599-14.19747l0.0815 0.3381c-5.44386 1.7394-26.87056 9.96614-34.98927 18.35547-6.1816 5.47003-12.10316 13.27033-16.69822 19.6289-2.25734 3.35329-5.07292 8.01479-8.125 13-0.88133-0.0299-0.96729-0.27773-1.625-0.625z"
       style="fill-opacity:1;fill-rule:evenodd;fill:#783d0a" />
    <path
       id="RightHand"
       d="m102.969 933.24731c0 3.03757-1.94699 3.59965-4.2942 3.59965-2.34721 0-2.77104-1.95283-1.73093-3.95321 0.77588-1.4922 1.95175-3.15237 2.68969-3.91737 1.49761-1.55251 1.16257 1.51097 1.16257 1.51097-0.54637 1.53853-1.05894 1.26488-1.4584 2.62738 0 0 0.94066 1.26026 1.28646 0.44451 0.65521-1.5457 2.34482-1.07132 2.34481-0.31193z"
       class="s3" />
    <path
       id="RightEyeClosed"
       d="m88 902.09478c-0.24219-0.12858-0.32909-0.18671-1.3125-0.20118-0.36184-0.005-0.86385-0.0713-1.28109 0.2053-0.0318 0.0211-0.029-0.0661-0.002-0.10801 0.16201-0.25186-0.62052-0.2965-0.41177-0.30476 0.78875-0.0312 1.11448 0.0373 1.66374 0.0473 0.73862 0.0134 1.34375 0.16177 1.34375 0.36132z"
       class="s2" />
    <path
       id="LeftEyeClosed"
       d="m92.05713 902.09478c0.24219-0.12858 0.32909-0.18671 1.3125-0.20118 0.36184-0.005 0.86385-0.0713 1.28109 0.2053 0.0318 0.0211 0.029-0.0661 0.002-0.10801-0.16201-0.25186 0.62052-0.2965 0.41177-0.30476-0.78875-0.0312-1.11448 0.0373-1.66374 0.0473-0.73862 0.0134-1.34375 0.16177-1.34375 0.36132z"
       class="s2" />
    <path
       id="HairStatic"
       d="m97.47727 894.66245c-13.80615-5.02039-19.71683-2.62684-20.35697 5.2726 0.0636 2.61661-0.0754 5.17164 1.77538 8.47025 1.85432-0.54316 1.47889 1.11235 2.72789 1.11565-0.10219-1.06278-0.0463-1.84567 0.19898-1.76986-0.18442-0.59364-0.61769-0.83708-0.84343-1.3345-1.28075-3.56537-0.42673-4.59781-0.12627-6.31345-0.50386-1.81395 0.0398-2.46123 0.42932-2.9547 0.43586-0.51397 1.46783-2.28607 2.09607-1.33845 0.37176 1.05238 4.37176-0.94762 5.54321 0.34724 1.15268 1.71704-0.17145 2.70514 0.89651 3.08727 0.57908 0.616 1.53429 2.06013 1.37001 1.67938 0.10953-0.55998 0.17083-1.49574 0.0189-1.8309-1.15342-1.24279 0.07-2.0359 0.75761-3.15672 0.80437 0.5343 3.82512-1.40342 4.46993 1.73619 0.49232 2.41121-0.0453 3.64181 0.18719 5.19582 2.80266-6.45909 0.51836-6.34379 0.85567-8.20582z"
       class="s0" />
    <path
       id="MouthStrug"
       d="M91.84375 908.86212C91.06734 907.33786 90.07957 908.5732 88.5 908.70587"
       class="s1" />
    <path
       id="MouthFlat"
       d="M91.84375 908.86212C90.4135 908.77632 89.98351 908.78452 88.5 908.70587"
       class="s1" />
  </g>
  <g
     transform="matrix(0,0.99999831,-1.0000017,0,0,0)"
     style="font-style:normal;font-weight:normal;font-size:4.99999189px;line-height:125%;font-family:sans-serif;letter-spacing:0px;word-spacing:0px;fill:#000000;fill-opacity:1;stroke:none;stroke-width:1px;stroke-linecap:butt;stroke-linejoin:miter;stroke-opacity:1"
     id="codeTxt">
    <path
       d="m 81.843691,-158.62334 -2.817378,-1.25244 0,-0.30273 2.817378,-1.25244 0,0.43945 -2.221676,0.96436 2.221676,0.96435 0,0.43945 z"
       id="path4189"
       inkscape:connector-curvature="0" />
    <path
       d="m 85.229916,-158.43535 -0.458984,0 0,-1.55273 q 0,-0.18799 -0.02197,-0.35156 -0.02197,-0.16602 -0.08057,-0.25879 -0.06103,-0.10254 -0.175781,-0.15137 -0.114745,-0.0513 -0.297851,-0.0513 -0.187988,0 -0.393065,0.0928 -0.205078,0.0928 -0.393066,0.23681 l 0,2.03613 -0.458984,0 0,-3.79882 0.458984,0 0,1.37451 q 0.214843,-0.17822 0.444335,-0.27832 0.229492,-0.1001 0.471191,-0.1001 0.441894,0 0.673827,0.26611 0.231933,0.26612 0.231933,0.7666 l 0,1.77002 z"
       id="path4191"
       inkscape:connector-curvature="0" />
    <path
       d="m 88.308524,-158.43535 -1.96777,0 0,-0.37109 0.756835,0 0,-2.43652 -0.756835,0 0,-0.33203 q 0.153808,0 0.329589,-0.0244 0.175781,-0.0268 0.266113,-0.0757 0.112305,-0.061 0.175781,-0.15381 0.06592,-0.0952 0.07568,-0.2539 l 0.378418,0 0,3.27636 0.742186,0 0,0.37109 z"
       id="path4193"
       inkscape:connector-curvature="0" />
    <path
       d="m 92.317307,-159.87578 -2.817379,1.25244 0,-0.43945 2.221676,-0.96435 -2.221676,-0.96436 0,-0.43945 2.817379,1.25244 0,0.30273 z"
       id="path4195"
       inkscape:connector-curvature="0" />
    <path
       d="m 96.20646,-158.43535 -0.483397,0 0,-1.77978 -1.813962,0 0,1.77978 -0.483398,0 0,-3.63525 0.483398,0 0,1.42578 1.813962,0 0,-1.42578 0.483397,0 0,3.63525 z"
       id="path4197"
       inkscape:connector-curvature="0" />
    <path
       d="m 99.431552,-159.75126 -2.009274,0 q 0,0.25146 0.07568,0.43945 0.07568,0.18554 0.207519,0.30517 0.126953,0.11719 0.300292,0.17578 0.175781,0.0586 0.385742,0.0586 0.27832,0 0.559081,-0.10987 0.283203,-0.1123 0.402831,-0.21972 l 0.02441,0 0,0.50049 q -0.231933,0.0976 -0.473632,0.16357 -0.241698,0.0659 -0.507811,0.0659 -0.67871,0 -1.059569,-0.36621 -0.380859,-0.36865 -0.380859,-1.04492 0,-0.66895 0.363769,-1.06201 0.366211,-0.39307 0.961913,-0.39307 0.551757,0 0.849608,0.32227 0.300292,0.32226 0.300292,0.91552 l 0,0.24903 z m -0.446776,-0.35157 q -0.0024,-0.36132 -0.183106,-0.55908 -0.178222,-0.19775 -0.544432,-0.19775 -0.368652,0 -0.588378,0.21728 -0.217285,0.21729 -0.246582,0.53955 l 1.562498,0 z"
       id="path4199"
       inkscape:connector-curvature="0" />
    <path
       d="m 100.59122,-158.43535 -0.45898,0 0,-3.79882 0.45898,0 0,3.79882 z"
       id="path4201"
       inkscape:connector-curvature="0" />
    <path
       d="m 101.94864,-158.43535 -0.45898,0 0,-3.79882 0.45898,0 0,3.79882 z"
       id="path4203"
       inkscape:connector-curvature="0" />
    <path
       d="m 105.16641,-159.79765 q 0,0.6665 -0.3418,1.05224 -0.34179,0.38574 -0.91552,0.38574 -0.57862,0 -0.92041,-0.38574 -0.33936,-0.38574 -0.33936,-1.05224 0,-0.6665 0.33936,-1.05225 0.34179,-0.38818 0.92041,-0.38818 0.57373,0 0.91552,0.38818 0.3418,0.38575 0.3418,1.05225 z m -0.47363,0 q 0,-0.52979 -0.20752,-0.78613 -0.20752,-0.25879 -0.57617,-0.25879 -0.37354,0 -0.58106,0.25879 -0.20508,0.25634 -0.20508,0.78613 0,0.51269 0.20752,0.77881 0.20752,0.26367 0.57862,0.26367 0.36621,0 0.57373,-0.26123 0.20996,-0.26367 0.20996,-0.78125 z"
       id="path4205"
       inkscape:connector-curvature="0" />
    <path
       d="m 111.90468,-162.0706 -0.94483,3.63525 -0.54443,0 -0.76416,-3.01757 -0.74707,3.01757 -0.53222,0 -0.96192,-3.63525 0.49561,0 0.76416,3.02246 0.75195,-3.02246 0.49072,0 0.75928,3.05176 0.75927,-3.05176 0.47364,0 z"
       id="path4207"
       inkscape:connector-curvature="0" />
    <path
       d="m 114.90272,-159.79765 q 0,0.6665 -0.3418,1.05224 -0.34179,0.38574 -0.91552,0.38574 -0.57861,0 -0.92041,-0.38574 -0.33936,-0.38574 -0.33936,-1.05224 0,-0.6665 0.33936,-1.05225 0.3418,-0.38818 0.92041,-0.38818 0.57373,0 0.91552,0.38818 0.3418,0.38575 0.3418,1.05225 z m -0.47363,0 q 0,-0.52979 -0.20752,-0.78613 -0.20752,-0.25879 -0.57617,-0.25879 -0.37354,0 -0.58106,0.25879 -0.20507,0.25634 -0.20507,0.78613 0,0.51269 0.20752,0.77881 0.20752,0.26367 0.57861,0.26367 0.36621,0 0.57373,-0.26123 0.20996,-0.26367 0.20996,-0.78125 z"
       id="path4209"
       inkscape:connector-curvature="0" />
    <path
       d="m 117.31726,-160.66191 -0.0244,0 q -0.10254,-0.0244 -0.20019,-0.0342 -0.0952,-0.0122 -0.22705,-0.0122 -0.21241,0 -0.41016,0.0952 -0.19775,0.0928 -0.38086,0.2417 l 0,1.93603 -0.45898,0 0,-2.72704 0.45898,0 0,0.40283 q 0.27344,-0.21973 0.48096,-0.31006 0.20996,-0.0928 0.42724,-0.0928 0.11963,0 0.17334,0.007 0.0537,0.005 0.16113,0.022 l 0,0.47119 z"
       id="path4211"
       inkscape:connector-curvature="0" />
    <path
       d="m 118.21814,-158.43535 -0.45898,0 0,-3.79882 0.45898,0 0,3.79882 z"
       id="path4213"
       inkscape:connector-curvature="0" />
    <path
       d="m 121.32361,-158.43535 -0.45899,0 0,-0.28564 q -0.19775,0.1709 -0.41259,0.26611 -0.21485,0.0952 -0.46631,0.0952 -0.48828,0 -0.77637,-0.37597 -0.28564,-0.37598 -0.28564,-1.04248 0,-0.34668 0.0977,-0.61767 0.10009,-0.271 0.26855,-0.46143 0.16602,-0.18555 0.38574,-0.2832 0.22217,-0.0977 0.45898,-0.0977 0.21485,0 0.38086,0.0464 0.16602,0.0439 0.34912,0.13916 l 0,-1.18164 0.45899,0 0,3.79882 z m -0.45899,-0.67138 0,-1.56494 q -0.18554,-0.083 -0.33203,-0.11475 -0.14648,-0.0317 -0.31982,-0.0317 -0.38574,0 -0.60059,0.26856 -0.21484,0.26855 -0.21484,0.76171 0,0.48584 0.16602,0.73975 0.16601,0.25146 0.53222,0.25146 0.19531,0 0.39551,-0.0854 0.20019,-0.0879 0.37353,-0.2246 z"
       id="path4215"
       inkscape:connector-curvature="0" />
    <path
       d="m 123.03259,-162.0706 -0.0635,2.63428 -0.41504,0 -0.0684,-2.63428 0.54688,0 z m -0.0244,3.63525 -0.49804,0 0,-0.51513 0.49804,0 0,0.51513 z"
       id="path4217"
       inkscape:connector-curvature="0" />
    <path
       d="m 127.18542,-158.62334 -2.81738,-1.25244 0,-0.30273 2.81738,-1.25244 0,0.43945 -2.22168,0.96436 2.22168,0.96435 0,0.43945 z"
       id="path4219"
       inkscape:connector-curvature="0" />
    <path
       d="m 129.93932,-162.23417 -1.75049,4.54101 -0.42236,0 1.74316,-4.54101 0.42969,0 z"
       id="path4221"
       inkscape:connector-curvature="0" />
    <path
       d="m 132.84703,-158.43535 -0.45899,0 0,-1.55273 q 0,-0.18799 -0.022,-0.35156 -0.022,-0.16602 -0.0806,-0.25879 -0.061,-0.10254 -0.17578,-0.15137 -0.11474,-0.0513 -0.29785,-0.0513 -0.18799,0 -0.39306,0.0928 -0.20508,0.0928 -0.39307,0.23681 l 0,2.03613 -0.45898,0 0,-3.79882 0.45898,0 0,1.37451 q 0.21484,-0.17822 0.44434,-0.27832 0.22949,-0.1001 0.47119,-0.1001 0.44189,0 0.67382,0.26611 0.23194,0.26612 0.23194,0.7666 l 0,1.77002 z"
       id="path4223"
       inkscape:connector-curvature="0" />
    <path
       d="m 135.92564,-158.43535 -1.96777,0 0,-0.37109 0.75683,0 0,-2.43652 -0.75683,0 0,-0.33203 q 0.1538,0 0.32958,-0.0244 0.17579,-0.0268 0.26612,-0.0757 0.1123,-0.061 0.17578,-0.15381 0.0659,-0.0952 0.0757,-0.2539 l 0.37842,0 0,3.27636 0.74219,0 0,0.37109 z"
       id="path4225"
       inkscape:connector-curvature="0" />
    <path
       d="m 139.93442,-159.87578 -2.81738,1.25244 0,-0.43945 2.22167,-0.96435 -2.22167,-0.96436 0,-0.43945 2.81738,1.25244 0,0.30273 z"
       id="path4227"
       inkscape:connector-curvature="0" />
  </g>
</svg>
