<?xml version="1.0" encoding="UTF-8" standalone="no"?>
<!-- Created with Inkscape (http://www.inkscape.org/) -->

<svg
   xmlns:dc="http://purl.org/dc/elements/1.1/"
   xmlns:cc="http://creativecommons.org/ns#"
   xmlns:rdf="http://www.w3.org/1999/02/22-rdf-syntax-ns#"
   xmlns:svg="http://www.w3.org/2000/svg"
   xmlns="http://www.w3.org/2000/svg"
   xmlns:sodipodi="http://sodipodi.sourceforge.net/DTD/sodipodi-0.dtd"
   xmlns:inkscape="http://www.inkscape.org/namespaces/inkscape"
   width="210mm"
   height="297mm"
   viewBox="0 0 744.09448819 1052.3622047"
   id="svg6009"
   version="1.1"
   inkscape:version="0.91 r13725"
   sodipodi:docname="Gear Silhouette.svg">
  <defs
     id="defs6011" />
  <sodipodi:namedview
     id="base"
     pagecolor="#ffffff"
     bordercolor="#666666"
     borderopacity="1.0"
     inkscape:pageopacity="0.0"
     inkscape:pageshadow="2"
     inkscape:zoom="0.35"
     inkscape:cx="-126.42857"
     inkscape:cy="520"
     inkscape:document-units="px"
     inkscape:current-layer="layer1"
     showgrid="false"
     inkscape:window-width="1920"
     inkscape:window-height="1018"
     inkscape:window-x="-8"
     inkscape:window-y="-8"
     inkscape:window-maximized="1" />
  <metadata
     id="metadata6014">
    <rdf:RDF>
      <cc:Work
         rdf:about="">
        <dc:format>image/svg+xml</dc:format>
        <dc:type
           rdf:resource="http://purl.org/dc/dcmitype/StillImage" />
        <dc:title></dc:title>
      </cc:Work>
    </rdf:RDF>
  </metadata>
  <g
     inkscape:label="Layer 1"
     inkscape:groupmode="layer"
     id="layer1">
    <path
       inkscape:connector-curvature="0"
       style="fill:#619dff;fill-opacity:1;fill-rule:evenodd;stroke:#000000;stroke-width:0.88646847px;stroke-linecap:butt;stroke-linejoin:miter;stroke-opacity:1"
       d="m -801.77938,274.30041 0.34961,54.94726 c 4.02405,-0.6785 8.06859,-1.06502 12.12305,-1.13672 l -0.32032,-50.80859 -12.15234,-3.00195 z m -51.78711,14.6289 -46.67773,40.76953 19.74218,44.41407 c -9.27495,11.51381 -17.61678,24.96247 -24.83007,40 l 7.4375,8.83984 c 8.19854,-19.26542 18.15774,-36.2564 29.51367,-50.35351 l -19.74219,-44.41602 36.10938,-31.53711 -1.55274,-7.7168 z m 150.9336,37.27539 -14.87305,34.98243 c 2.66124,2.71673 5.27274,5.58061 7.82031,8.60547 l 13.82031,-32.50977 -6.76757,-11.07813 z m -101.31055,3.50781 c -9.36,0.45723 -18.65603,2.54823 -27.74219,6.21485 l 0.79102,3.93164 c 8.76433,-4.92363 17.79613,-8.31272 26.95117,-10.14649 z m -133.05274,62.68946 -23.42578,78.83594 31.59571,16.53906 c -4.15067,22.14252 -6.22804,45.22182 -6.16797,68.41992 l 12.12304,-0.20508 c -0.14339,-23.63927 1.93719,-47.16903 6.16602,-69.72851 l -31.59375,-16.54102 19.92773,-67.06836 -8.625,-10.25195 z m 296.31836,73.18164 -20.25,11.39453 c 0.34086,1.57506 0.67411,3.15549 0.99414,4.74414 l 19.76368,-11.11914 -0.50782,-5.01953 z m 8.64454,85.48047 -20.85157,0.35351 c 0.003,0.43692 -10e-4,0.87371 0,1.31055 l 20.98438,-0.35547 -0.13281,-1.30859 z m -323.8125,6.79687 -12.25391,0.20703 8.77734,86.78711 11.61524,-6.53515 -8.13867,-80.45899 z m 40.02343,67.82617 -11.1289,6.25977 c 4.46631,20.63811 10.71021,40.08694 18.54297,57.72461 l -26.58594,32.97266 37.62695,61.59179 5.35352,-12.59375 -30.85743,-50.51367 26.58594,-32.97266 c -8.43053,-18.98372 -15.02358,-40.06386 -19.53711,-62.46875 z m 237.96094,58.76954 c -1.50216,3.52987 -3.06544,6.98009 -4.68359,10.35351 l 19.54296,23.22656 3.4961,-11.76562 -18.35547,-21.81445 z m -188.20703,53.16015 -4.30469,10.1211 c 9.3852,9.58087 19.44328,17.22856 29.95899,22.74218 l -9.91016,52.79102 52.10352,12.86719 -0.0293,-4.51563 -39.95313,-9.86719 9.91211,-52.79101 c -13.49751,-7.07705 -26.24545,-17.65527 -37.77734,-31.34766 z m 121.20703,29.9336 c -3.73151,2.09628 -7.51281,3.90686 -11.33008,5.44726 l 9.75781,48.51367 10.56836,-9.23047 -8.99609,-44.73046 z m -39.08008,11.6621 c -0.83565,0.0408 -1.67127,0.0711 -2.50781,0.0859 l 0.002,0.37696 c 0.83658,-0.14106 1.67123,-0.29579 2.50586,-0.4629 z"
       id="path5290" />
  </g>
</svg>
