<?xml version="1.0" encoding="UTF-8" standalone="no"?>
<!-- Created with Inkscape (http://www.inkscape.org/) -->

<svg
   xmlns:dc="http://purl.org/dc/elements/1.1/"
   xmlns:cc="http://creativecommons.org/ns#"
   xmlns:rdf="http://www.w3.org/1999/02/22-rdf-syntax-ns#"
   xmlns:svg="http://www.w3.org/2000/svg"
   xmlns="http://www.w3.org/2000/svg"
   xmlns:sodipodi="http://sodipodi.sourceforge.net/DTD/sodipodi-0.dtd"
   xmlns:inkscape="http://www.inkscape.org/namespaces/inkscape"
   width="705.24969mm"
   height="506.90939mm"
   viewBox="0 0 2498.9162 1796.1356"
   id="svg4142"
   version="1.1"
   inkscape:version="0.91 r13725"
   sodipodi:docname="Gears_bak.svg">
  <defs
     id="defs4144" />
  <sodipodi:namedview
     id="base"
     pagecolor="#ffffff"
     bordercolor="#666666"
     borderopacity="1.0"
     inkscape:pageopacity="0.0"
     inkscape:pageshadow="2"
     inkscape:zoom="0.35"
     inkscape:cx="857.73909"
     inkscape:cy="936.33415"
     inkscape:document-units="px"
     inkscape:current-layer="layer1"
     showgrid="false"
     inkscape:window-width="1920"
     inkscape:window-height="1018"
     inkscape:window-x="-8"
     inkscape:window-y="-8"
     inkscape:window-maximized="1"
     fit-margin-top="0"
     fit-margin-left="0"
     fit-margin-right="0"
     fit-margin-bottom="0" />
  <metadata
     id="metadata4147">
    <rdf:RDF>
      <cc:Work
         rdf:about="">
        <dc:format>image/svg+xml</dc:format>
        <dc:type
           rdf:resource="http://purl.org/dc/dcmitype/StillImage" />
        <dc:title></dc:title>
      </cc:Work>
    </rdf:RDF>
  </metadata>
  <g
     inkscape:label="Layer 1"
     inkscape:groupmode="layer"
     id="layer1"
     transform="translate(467.0248,606.93691)">
    <path
       style="fill:none;fill-opacity:1;stroke:#000000;stroke-width:2.65506625;stroke-linejoin:round;stroke-miterlimit:4;stroke-dasharray:none;stroke-opacity:1"
       d="m 269.80078,-605.60938 c -22.59727,38.51441 -28.06532,65.64534 -29.33008,75.23438 -12.34727,-0.0594 -24.69336,0.23895 -37.02343,0.89648 -1.50348,-9.54143 -8.03601,-36.37841 -32.23438,-73.78906 -9.11966,0.85459 -18.22086,1.89174 -27.29883,3.11133 -15.35708,41.93034 -15.89354,69.599 -15.42578,79.25977 -12.15944,2.1463 -24.25306,4.64555 -36.267577,7.49414 -3.183008,-9.11963 -14.403158,-34.36095 -44.892578,-66.84961 -8.820515,2.46924 -17.590371,5.11658 -26.304687,7.9375 -7.623361,43.99862 -3.208675,71.31823 -1.023438,80.74023 -11.5808007,4.28295 -23.0348535,8.90152 -34.347656,13.84961 -4.76023,-8.40473 -20.306905,-31.23535 -56.107422,-57.75781 -8.237866,4.00452 -16.394269,8.17231 -24.464844,12.5039 0.3554,44.65275 9.577673,70.74656 13.410156,79.62696 -10.629942,6.28195 -21.076734,12.87121 -31.324214,19.75976 -6.18446,-7.41969 -25.55662,-27.10869 -65.51758,-46.8125 -7.39044,5.4111 -14.67241,10.97079 -21.83985,16.67383 8.32275,43.8717 22.05556,67.8978 27.41211,75.95117 -9.33743,8.07905 -18.43821,16.42756 -27.29101,25.03516 -7.40991,-6.19618 -29.9872,-22.10753 -72.82422,-34.35938 -6.30549,6.64375 -12.47583,13.41156 -18.50977,20.30274 16.0226,41.68058 33.8228,62.87039 40.53125,69.83789 -7.7448,9.61648 -15.20727,19.45586 -22.38086,29.50586 -8.3972,-4.77351 -33.4528,-16.39857 -77.78906,-20.80469 -5.01788,7.66287 -9.88138,15.42536 -14.58789,23.2832 23.20746,38.14981 44.50487,55.81889 52.34961,61.47657 -5.90325,10.84483 -11.49009,21.85989 -16.75391,33.02929 -9.11459,-3.19742 -35.84339,-10.16327 -80.2539,-6.58203 -3.56897,8.4357 -6.96749,16.94173 -10.19532,25.51367 29.64644,33.39287 53.75744,46.97655 62.48633,51.14258 -3.87196,11.72462 -7.40304,23.558496 -10.58789,35.488284 -9.53903,-1.518568 -37.08132,-3.599974 -80.13867,7.853515 -2.00536,8.937399 -3.83121,17.915243 -5.47656,26.925782 35.13252,27.5626583 61.28275,36.621629 70.61523,39.162109 -1.71623,12.22756 -3.07656,24.501844 -4.08008,36.808594 -9.65689,0.20909 -37.12891,3.079499 -77.44921,22.037109 -0.37731,9.15184 -0.57204,18.311183 -0.58204,27.470703 39.48942,20.846574 66.83653,25.090554 76.47266,25.923824 0.49466,12.33751 1.34853,24.65911 2.55859,36.94727 -9.46437,1.93004 -35.9822,9.6593 -72.26953,35.51172 1.26289,9.07214 2.70639,18.11869 4.33203,27.13281 42.57711,13.46044 70.24299,12.75228 79.87305,11.85156 2.68966,12.05091 5.72853,24.02187 9.11328,35.89649 -8.96765,3.58896 -33.67954,15.92938 -64.76758,47.8457 2.86248,8.70085 5.90033,17.3429 9.10938,25.92188 44.25929,5.54447 71.3046,-0.18765 80.58203,-2.89063 l 0.12305,0.29297 c 4.79821,11.37699 9.9263,22.61199 15.37695,33.69141 -8.1827,5.13251 -30.29402,21.68622 -55.18359,58.64062 4.37008,8.04991 8.90053,16.0108 13.58984,23.87891 44.59184,-2.35838 70.24581,-12.73976 78.94531,-16.9668 6.75254,10.3374 13.80317,20.47619 21.14453,30.4043 -7.13475,6.51111 -25.93309,26.74801 -43.82421,67.55273 5.73721,7.14024 11.6159,14.164 17.63476,21.06836 43.45413,-10.28267 66.84156,-25.07854 74.64649,-30.79101 8.48984,8.96557 17.23825,17.68291 26.23437,26.14062 -5.85749,7.68044 -20.74095,30.94746 -31.05859,74.29102 6.91995,6.00107 13.95832,11.86333 21.11328,17.58203 40.91976,-17.87645 61.28971,-36.61071 67.94922,-43.625 9.95426,7.30556 20.11873,14.31968 30.48047,21.03515 -4.39197,8.60291 -14.88239,34.15525 -17.29493,78.64453 7.88028,4.66904 15.85299,9.18007 23.914066,13.5293 37.070202,-24.89567 53.766371,-46.96597 59.066406,-55.05664 11.098755,5.41075 22.353739,10.49847 33.7480474,15.25586 -2.7852807,9.24887 -8.5447124,36.26169 -2.9746094,80.4668 8.5873269,3.18692 17.237186,6.20299 25.945312,9.04297 32.029169,-31.11474 44.516892,-55.81174 48.28711,-64.71875 11.886521,3.34204 23.86706,6.33796 35.927738,8.98437 -1.08907,9.59757 -1.93232,37.20494 11.4414,79.70508 9.01837,1.60237 18.06925,3.02423 27.14453,4.26367 25.9587,-36.33374 33.83585,-62.86372 35.95508,-72.30078 12.29224,1.16591 24.6157,1.97541 36.95508,2.42578 0.64214,9.63778 4.74274,36.95169 25.49023,76.38086 9.15956,-0.0337 18.31606,-0.24945 27.4668,-0.65039 19.05389,-40.38494 22.06864,-67.89478 22.46875,-77.55859 12.30288,-1.04769 24.57148,-2.45274 36.79297,-4.21289 2.35272,9.36825 11.26433,35.51259 38.71875,70.60351 9.00634,-1.66863 17.97806,-3.51845 26.91016,-5.54687 11.53668,-43.13814 9.58967,-70.74426 8.25781,-80.32422 11.9181,-3.22761 23.74036,-6.80076 35.45117,-10.71485 3.98767,8.7976 17.42419,32.93182 50.70313,62.55664 8.56367,-3.24996 17.06191,-6.67296 25.48828,-10.26367 3.64866,-44.50485 -3.19578,-71.31963 -6.2168,-80.50781 11.15026,-5.30381 22.14308,-10.92885 32.9668,-16.87109 5.49446,7.94419 23.02474,29.28953 61.05859,52.49609 7.84574,-4.72684 15.59628,-9.61085 23.24609,-14.64844 -4.35662,-44.44114 -15.88106,-69.60241 -20.49414,-78.10351 10.02403,-7.20953 19.83704,-14.70889 29.42578,-22.48828 6.82466,6.83545 27.88486,24.70759 69.45118,40.75 6.87565,-6.05178 13.62849,-12.23994 20.25586,-18.5625 -12.22187,-42.94904 -28.05249,-65.64867 -34.10938,-73.18946 8.57564,-8.88353 16.89191,-18.01434 24.9375,-27.38086 7.9355,5.50702 31.84851,19.33267 75.61133,27.69532 5.68456,-7.18222 11.2233,-14.4785 16.61523,-21.88282 -19.69431,-40.07653 -39.3229,-59.58376 -46.6289,-65.92187 6.85161,-10.272 13.40264,-20.74194 19.64648,-31.39453 8.79128,4.00158 34.78906,13.33589 79.3418,13.75 4.31078,-8.08182 8.45822,-16.24995 12.4414,-24.49805 -26.53376,-35.91593 -49.33008,-51.6054 -57.65039,-56.53711 4.90736,-11.33033 9.48517,-22.8002 13.72657,-34.39648 9.36452,2.36753 36.60884,6.90907 80.51953,-0.63868 2.79844,-8.72166 5.42271,-17.4994 7.86914,-26.32617 -32.52039,-30.60096 -57.75312,-41.96717 -66.82031,-45.33398 2.80539,-12.02449 5.26063,-24.12767 7.36328,-36.29492 9.63676,0.65738 37.25595,0.25919 79.11328,-15.00782 1.19615,-9.08118 2.20998,-18.18489 3.04101,-27.30664 -37.46179,-24.30245 -64.31914,-30.98013 -73.84179,-32.67382 0.61325,-12.33219 0.86931,-24.68019 0.76562,-37.027349 9.59927,-1.07389 36.70152,-6.395045 75.16016,-28.890625 -0.44458,-9.14882 -1.07173,-18.288569 -1.88281,-27.412109 -41.19913,-17.22284 -68.81624,-18.998744 -78.48829,-18.964844 -1.5986,-12.2434902 -3.55267,-24.4381402 -5.85937,-36.568359 9.25326,-2.77065 34.97107,-12.846536 68.79492,-41.847656 -2.07102,-8.922416 -4.32093,-17.802664 -6.74805,-26.634766 -43.61228,-9.589671 -71.10273,-6.404851 -80.61328,-4.644531 -3.75907,-11.761301 -7.85936,-23.412151 -12.29492,-34.935551 8.60984,-4.37836 32.11682,-18.88444 60.21875,-53.45898 -3.63089,-8.40923 -7.43134,-16.74322 -11.39648,-25 -44.62373,-1.64829 -71.10309,6.39206 -80.14649,9.82227 -5.79871,-10.90109 -11.91407,-21.63151 -18.33593,-32.17774 7.68968,-5.84534 28.22827,-24.31485 49.70507,-63.35156 -5.07407,-7.62577 -10.30006,-15.14835 -15.67578,-22.56446 -44.20093,6.34608 -68.81989,18.98477 -77.10547,23.97461 -7.652,-9.69049 -15.58536,-19.15664 -23.78711,-28.38671 6.52238,-7.12446 23.43236,-28.96478 37.59375,-71.20899 -6.35417,-6.59721 -12.83959,-13.06529 -19.45312,-19.40234 -42.35746,14.13648 -64.32254,30.96832 -71.58399,37.35742 -9.25932,-8.16845 -18.7546,-16.06633 -28.47265,-23.68359 5.14545,-8.17457 17.88262,-32.68146 24.27344,-76.7754 -7.43003,-5.3566 -14.9667,-10.56483 -22.60547,-15.61914 -39.15259,21.47251 -57.75973,41.95801 -63.76367,49.54102 -10.56906,-6.38386 -21.3202,-12.45912 -32.24219,-18.21875 3.60313,-8.96196 11.759,-35.35246 10.17383,-79.87891 -8.26708,-3.94385 -16.61081,-7.72094 -25.0293,-11.33007 -34.68934,28.1184 -49.34108,51.59571 -53.89453,60.1289 -11.53909,-4.39408 -23.20363,-8.4511 -34.97852,-12.16797 1.94501,-9.46131 5.2602,-36.88426 -4.25,-80.41211 -8.83843,-2.40432 -17.7247,-4.62978 -26.65234,-6.67773 -29.11113,33.86055 -39.3344,59.578 -42.29102,68.78711 -12.13825,-2.26309 -24.34051,-4.17387 -36.58984,-5.72852 0.22437,-9.65655 -1.4095,-37.22913 -18.53906,-78.35937 -9.1257,-0.78752 -18.26618,-1.3935 -27.41602,-1.81446 z m 21.28516,148.50391 A 556.65836,556.65836 0 0 1 790.18945,42.482422 l -483.67968,0 A 88.571426,88.571426 0 0 0 291.08594,26.974609 l 0,-484.080079 z m -108.73242,0.49609 0,483.667974 A 88.571426,88.571426 0 0 0 166.8457,42.482422 l -484.04297,0 A 556.65836,556.65836 0 0 1 182.35352,-456.60938 Z m -499.05469,607.82422 483.63086,0 a 88.571426,88.571426 0 0 0 15.42383,15.50782 l 0,484.04492 A 556.65836,556.65836 0 0 1 -316.70117,151.21484 Z m 623.29492,0 484.08398,0 A 556.65836,556.65836 0 0 1 291.08594,650.2793 l 0,-483.64063 a 88.571426,88.571426 0 0 0 15.50781,-15.42383 z"
       id="rect4729"
       inkscape:connector-curvature="0" />
    <path
       id="path4768"
       d="m 1451.0829,-28.637562 c -19.5697,33.3542858 -24.3051,56.850237 -25.4005,65.154547 -10.693,-0.05141 -21.385,0.206935 -32.063,0.77637 -1.302,-8.263078 -6.9593,-31.5044632 -27.9157,-63.90287 -7.8978,0.740093 -15.7797,1.638287 -23.6413,2.694477 -13.2995,36.312553 -13.7642,60.27419 -13.3591,68.64062 -10.5303,1.858736 -21.0037,4.023145 -31.4085,6.49008 -2.7565,-7.897792 -12.4734,-29.7573 -38.8779,-57.8931586 -7.6387,2.138413 -15.2335,4.431065 -22.7804,6.87404003 -6.6019,38.10372457 -2.7788,61.76307757 -0.8863,69.92272857 -10.0292,3.70912 -19.9487,7.7089 -29.7458,11.99405 -4.1224,-7.27867 -17.5862,-27.050463 -48.5902,-50.01947 -7.1341,3.467998 -14.1977,7.077392 -21.187,10.828641 0.3077,38.670219 8.2945,61.267997 11.6134,68.958607 -9.2057,5.4403 -18.2529,11.14674 -27.1274,17.11237 -5.3559,-6.42561 -22.1325,-23.4767 -56.7396,-40.540598 -6.4003,4.68611 -12.7067,9.50093 -18.9137,14.439878 7.2076,37.99381 19.1006,58.80091 23.7394,65.7753 -8.0864,6.99662 -15.9679,14.22661 -23.6346,21.68098 -6.4171,-5.36603 -25.9695,-19.14559 -63.06732,-29.75595 -5.4606,5.75362 -10.8043,11.61469 -16.0298,17.5826 13.8759,36.09625 29.29133,54.44707 35.10092,60.48108 -6.70708,8.32807 -13.16992,16.84917 -19.38232,25.55268 -7.2721,-4.13396 -28.9708,-14.2015 -67.3669,-18.01729 -4.3457,6.6362 -8.55754,13.35868 -12.6335,20.16374 20.0981,33.03852 38.5422,48.34032 45.3359,53.23999 -5.1123,9.39185 -9.9507,18.93112 -14.5092,28.60405 -7.8935,-2.76903 -31.04114,-8.80159 -69.50162,-5.70017 -3.0908,7.3055 -6.03399,14.67189 -8.82936,22.09537 25.67444,28.91893 46.55509,40.68268 54.11448,44.29054 -3.35326,10.15377 -6.41124,20.40216 -9.16937,30.7336 -8.261,-1.31511 -32.11318,-3.11765 -69.40174,6.80131 -1.73668,7.73998 -3.31791,15.51498 -4.74281,23.31829 30.42549,23.86984 53.07214,31.7151 61.15427,33.91521 -1.4863,10.58932 -2.66437,21.21911 -3.53344,31.87701 -8.36307,0.18107 -32.15441,2.66691 -67.07263,19.0846 -0.32677,7.92567 -0.4954,15.85787 -0.50407,23.7902 34.19867,18.05357 57.88184,21.72894 66.22693,22.45057 0.42838,10.68454 1.16786,21.35531 2.21579,31.99711 -8.19634,1.67146 -31.16133,8.36515 -62.58692,30.75389 1.09368,7.85666 2.34378,15.69117 3.75162,23.49759 36.87268,11.65702 60.8319,11.04374 69.17174,10.2637 2.32925,10.43634 4.96105,20.80343 7.89228,31.0871 -7.76615,3.10812 -29.16718,13.79518 -56.09007,41.43539 2.47897,7.53511 5.10981,15.01931 7.88891,22.44888 38.32945,4.80163 61.75131,-0.16251 69.78571,-2.50335 l 0.1066,0.25373 c 4.1553,9.8527 8.5964,19.58245 13.3167,29.17746 -7.0863,4.44486 -26.2353,18.78072 -47.79011,50.784 3.78463,6.97139 7.70807,13.86569 11.76906,20.67964 38.61755,-2.0424 60.83445,-11.03289 68.36835,-14.69361 5.8478,8.95241 11.9538,17.73282 18.3115,26.33077 -6.1787,5.63875 -22.4585,23.16433 -37.9526,58.50205 4.9685,6.18363 10.0596,12.26633 15.272,18.24573 37.63222,-8.9051 57.88622,-21.71864 64.64552,-26.6657 7.3524,7.76432 14.9286,15.3138 22.7195,22.6383 -5.0726,6.6514 -17.9621,26.80116 -26.8973,64.33766 5.9927,5.197 12.0881,10.2738 18.2844,15.2263 35.4375,-15.4813 53.0782,-31.7056 58.8455,-37.7801 8.6206,6.3268 17.4232,12.4012 26.3967,18.2169 -3.8035,7.4503 -12.8885,29.5791 -14.9778,68.1077 6.8246,4.0436 13.7291,7.9503 20.7102,11.7167 32.1036,-21.5601 46.5627,-40.6734 51.1527,-47.6802 9.6117,4.6859 19.3588,9.092 29.2265,13.2119 -2.4122,8.0098 -7.3999,31.4034 -2.5761,69.686 7.4368,2.76 14.9278,5.3719 22.4692,7.8314 27.7379,-26.946 38.5525,-48.3342 41.8177,-56.0477 10.2939,2.8942 20.6693,5.4887 31.1142,7.7805 -0.9433,8.3118 -1.6736,32.2204 9.9085,69.0263 7.81,1.3877 15.6482,2.619 23.5077,3.6924 22.4807,-31.4658 29.3025,-54.4412 31.1378,-62.6139 10.6453,1.0097 21.3178,1.7106 32.0039,2.1008 0.5561,8.3465 4.1072,32.0009 22.0751,66.1473 7.9322,-0.029 15.862,-0.216 23.7868,-0.5632 16.501,-34.9742 19.1118,-58.7982 19.4583,-67.1673 10.6546,-0.9073 21.2795,-2.1242 31.8636,-3.6485 2.0374,8.113 9.7551,30.7546 33.5313,61.1441 7.7996,-1.445 15.5692,-3.0471 23.3046,-4.8038 9.9911,-37.3584 8.3049,-61.2658 7.1514,-69.5624 10.3214,-2.7951 20.5598,-5.8895 30.7016,-9.2793 3.4534,7.619 15.0897,28.5198 43.9099,54.1754 7.4163,-2.8145 14.7759,-5.7789 22.0734,-8.8885 3.1599,-38.5421 -2.7676,-61.7643 -5.3839,-69.7215 9.6564,-4.5932 19.1764,-9.4645 28.55,-14.6107 4.7583,6.8799 19.9399,25.3653 52.878,45.4627 6.7945,-4.0935 13.5067,-8.3231 20.1316,-12.6858 -3.7729,-38.487 -13.7534,-60.2771 -17.7484,-67.6392 8.681,-6.2437 17.1793,-12.7383 25.4833,-19.4755 5.9104,5.9196 24.149,21.3974 60.1462,35.2905 5.9545,-5.241 11.8027,-10.6002 17.5421,-16.0756 -10.5844,-37.19486 -24.2941,-56.85316 -29.5395,-63.38367 7.4266,-7.69329 14.6287,-15.60076 21.5964,-23.71235 6.8723,4.76919 27.5815,16.74245 65.481,23.98472 4.923,-6.21993 9.7196,-12.53869 14.3891,-18.95096 -17.0557,-34.70717 -34.0544,-51.60083 -40.3816,-57.08977 5.9337,-8.89576 11.607,-17.96295 17.0143,-27.18832 7.6134,3.46545 30.128,11.54917 68.7116,11.9078 3.7333,-6.99903 7.325,-14.0728 10.7746,-21.21583 -22.9788,-31.10395 -42.721,-44.69136 -49.9265,-48.96232 4.2499,-9.81231 8.2144,-19.74545 11.8875,-29.78808 8.1099,2.05033 31.704,5.9834 69.7316,-0.5531 2.4236,-7.55315 4.6961,-15.15485 6.8149,-22.79902 -28.1634,-26.50107 -50.0154,-36.34444 -57.8678,-39.26017 2.4295,-10.41346 4.5558,-20.89507 6.3767,-31.43216 8.3456,0.56931 32.2644,0.22446 68.5137,-12.99709 1.036,-7.86449 1.9139,-15.7485 2.6336,-23.64812 -32.4426,-21.04643 -55.7017,-26.82944 -63.9485,-28.29621 0.5311,-10.67994 0.7529,-21.37356 0.6631,-32.06646 8.3131,-0.93001 31.7843,-5.53824 65.0902,-25.01989 -0.385,-7.92307 -0.9281,-15.83827 -1.6306,-23.73945 -35.6792,-14.91534 -59.5962,-16.45332 -67.9725,-16.42396 -1.3844,-10.60312 -3.0765,-21.16394 -5.0742,-31.66897 8.0135,-2.39943 30.2856,-11.12536 59.5778,-36.24093 -1.7935,-7.72701 -3.7421,-15.41748 -5.844,-23.06627 -37.7691,-8.30486 -61.5765,-5.54673 -69.8128,-4.02226 -3.2553,-10.18554 -6.8063,-20.27542 -10.6476,-30.25492 7.4563,-3.79175 27.8138,-16.35432 52.1507,-46.2966 -3.1444,-7.28256 -6.4357,-14.49997 -9.8696,-21.65051 -38.6451,-1.42746 -61.5768,5.53565 -69.4086,8.50629 -5.0217,-9.44058 -10.3178,-18.73335 -15.8792,-27.8666 6.6595,-5.06218 24.4462,-21.05717 43.0455,-54.86378 -4.3942,-6.60407 -8.92,-13.11879 -13.5754,-19.54129 -38.279,5.49584 -59.5995,16.4412 -66.775,20.76251 -6.6268,-8.39216 -13.4973,-16.59005 -20.6001,-24.58349 5.6485,-6.16992 20.2928,-25.0841 32.5569,-61.66847 -5.5027,-5.71332 -11.1194,-11.31481 -16.8468,-16.80283 -36.6824,12.24249 -55.7046,26.81921 -61.9932,32.3523 -8.0187,-7.07404 -16.2419,-13.91377 -24.6579,-20.51048 4.4561,-7.07935 15.4867,-28.30283 21.0213,-66.489098 -6.4346,-4.63892 -12.9615,-9.14936 -19.5769,-13.5265 -33.9068,18.59565 -50.0211,36.336508 -55.2206,42.903558 -9.153,-5.52856 -18.4637,-10.78986 -27.9224,-15.777818 3.1203,-7.76124 10.1835,-30.61597 8.8107,-69.176806 -7.1595,-3.415457 -14.3853,-6.686496 -21.6759,-9.812077 -30.0416,24.351124 -42.7304,44.682963 -46.6737,52.072883 -9.9932,-3.80537 -20.0948,-7.31883 -30.2921,-10.537714 1.6843,-8.193689 4.5554,-31.942542 -3.6807,-69.6385706 -7.6543,-2.0821914 -15.3499,-4.0094864 -23.0815,-5.7830534 -25.2108,29.323945 -34.0643,51.595794 -36.6249,59.571078 -10.5119,-1.959889 -21.0794,-3.614662 -31.6875,-4.961021 0.1943,-8.362773 -1.2207,-32.2412042 -16.0552,-67.860853 -7.9031,-0.682009 -15.8189,-1.2068 -23.7429,-1.57136 z m 18.4334,128.607494 a 482.07778,482.07778 0 0 1 432.2342,432.653558 l -418.8768,0 a 76.704707,76.704707 0 0 0 -13.3574,-13.43009 l 0,-419.223468 z m -94.1646,0.429618 0,418.86658 a 76.704707,76.704707 0 0 0 -13.43,13.35736 l -419.19142,0 A 482.07778,482.07778 0 0 1 1375.3517,100.39955 Z m -432.19182,526.38849 418.83452,0 a 76.704707,76.704707 0 0 0 13.3573,13.4301 l 0,419.19316 A 482.07778,482.07778 0 0 1 943.15988,626.78804 Z m 539.78652,0 419.2268,0 a 482.07778,482.07778 0 0 1 -432.6569,432.20036 l 0,-418.843 a 76.704707,76.704707 0 0 0 13.4301,-13.35736 z"
       style="fill:none;fill-opacity:1;stroke:#000000;stroke-width:2.29934287;stroke-linejoin:round;stroke-miterlimit:4;stroke-dasharray:none;stroke-opacity:1"
       inkscape:connector-curvature="0" />
  </g>
</svg>
