<?xml version="1.0" encoding="utf-8"?>
<!-- Generator: Adobe Illustrator 19.2.1, SVG Export Plug-In . SVG Version: 6.00 Build 0)  -->
<svg version="1.1"
	 id="svg2" inkscape:export-filename="C:\xampp\htdocs\Portfolio\img\FroPieGraph.png" inkscape:export-xdpi="90" inkscape:export-ydpi="90" inkscape:version="0.91 r13725" sodipodi:docname="FroPieGraph.svg" xmlns:cc="http://creativecommons.org/ns#" xmlns:dc="http://purl.org/dc/elements/1.1/" xmlns:inkscape="http://www.inkscape.org/namespaces/inkscape" xmlns:rdf="http://www.w3.org/1999/02/22-rdf-syntax-ns#" xmlns:sodipodi="http://sodipodi.sourceforge.net/DTD/sodipodi-0.dtd" xmlns:svg="http://www.w3.org/2000/svg"
	 xmlns="http://www.w3.org/2000/svg" xmlns:xlink="http://www.w3.org/1999/xlink" x="0px" y="0px" viewBox="0 0 245.9 295.3"
	 style="enable-background:new 0 0 245.9 295.3;" xml:space="preserve">
<style type="text/css">
	.st0{fill:url(#face_1_);stroke:#000000;}
	.st1{fill:url(#fro_1_);stroke:#000000;}
	.st2{fill:none;stroke:#000000;}
	.st3{fill:#7E6E63;}
	.st4{font-family:'Calibri';}
	.st5{font-size:12.5px;}
	.st6{font-size:13.75px;}
	.st7{fill:none;stroke:#000000;stroke-width:0.5;stroke-linecap:round;stroke-linejoin:round;}
	.st8{fill:none;stroke:#000000;stroke-width:0.5;stroke-linecap:round;}
	.st9{fill:#A32305;}
	.st10{fill:#841B07;}
	.st11{fill:#572C1F;}
</style>
<sodipodi:namedview  bordercolor="#666666" borderopacity="1.0" fit-margin-bottom="0" fit-margin-left="0" fit-margin-right="0" fit-margin-top="0" id="base" inkscape:current-layer="svg2" inkscape:cx="103.69141" inkscape:cy="143.1251" inkscape:document-units="px" inkscape:pageopacity="0.0" inkscape:pageshadow="2" inkscape:window-height="1018" inkscape:window-maximized="1" inkscape:window-width="1920" inkscape:window-x="-8" inkscape:window-y="-8" inkscape:zoom="2.8284271" pagecolor="#ffffff" showgrid="false" showguides="false" units="px">
	</sodipodi:namedview>
<g id="layer1" transform="translate(-68.558456,-688.17793)" inkscape:groupmode="layer" inkscape:label="Layer 1">
	
		<radialGradient id="face_1_" cx="393.5435" cy="-688.2571" r="40.6358" gradientTransform="matrix(1 0 0 -1 -205.6755 260.1779)" gradientUnits="userSpaceOnUse">
		<stop  offset="0" style="stop-color:#683B29"/>
		<stop  offset="0.1613" style="stop-color:#683B2D"/>
		<stop  offset="0.3693" style="stop-color:#713B2A"/>
		<stop  offset="0.5968" style="stop-color:#743B29"/>
		<stop  offset="0.7064" style="stop-color:#6D3827"/>
		<stop  offset="0.8472" style="stop-color:#603122"/>
		<stop  offset="1" style="stop-color:#572C1F"/>
	</radialGradient>
	<path id="face" inkscape:connector-curvature="0" sodipodi:nodetypes="csccccc" class="st0" d="M229.1,921c0.8,0.6-1.1,5.3-0.4,7.4
		c12.7-0.9,8.9,20.2-2.8,16.8c-1.2,2.7-1.7,7-2.7,8.6c-3,5.8-17.1,18.6-31.4,24.5c-2.5,1.3-9.9,0.7-11.4,0.2
		c-10.8-6.5-25.2-18.5-28.6-24.1c-1.3-4-1-7.1-1.5-8.7c-15.6,1.1-13-20-3.6-18.9c0,0,0.1-6.1,0.1-8.8"/>
	
		<radialGradient id="fro_1_" cx="463.7369" cy="2314.9995" r="123.498" gradientTransform="matrix(1 0 0 0.9762 -274.2339 -1444.6068)" gradientUnits="userSpaceOnUse">
		<stop  offset="0" style="stop-color:#5C4536"/>
		<stop  offset="0.3126" style="stop-color:#543F32"/>
		<stop  offset="0.576" style="stop-color:#4B3A30"/>
		<stop  offset="1" style="stop-color:#372E2E"/>
	</radialGradient>
	<path id="fro" inkscape:connector-curvature="0" sodipodi:nodetypes="ccccccccccccccccccccccccccccccccccccc" class="st1" d="
		M231.1,929.8c-1.5-0.2-3.4-2.9-5.6-6.1c-4.3,3.2-7.8,2.8-13-0.6c-2.5,1.5-7.4,2.9-12.6-1.5c-6.7,3.3-10,1.9-14.2-0.7
		c-6,3.1-7.8,1.5-12,0.1c-1.5,1.3-7.8,2.8-10.2-0.8c-5.8,1.6-6.1,7.1-13.1,1.1c-2.2,2.3-5.7,5.8-9.8,5.4c-4.9-0.4-11.5-4-10.9-8
		c-4-0.1-10.7,2.1-15.2-10.6l-11.4-5.3c-1.8-1.2-3.9-7.9-4.5-10.8c-1.5-5.5-5.2-3.1-9.8-7.7c-1.4-1.7,0.8-11.2-3.4-14.4
		c-7.1-4.3-9.2-9.7-8.7-21.4c-6.4-4.1-2.4-9.6-2.3-12.2c-4.6-6.7-4.2-11.7-2.4-18.4c-5-9.2-3-12.6,2.2-17.5
		c-4.7-14.2,0.9-8.8,5.6-21.2c-4.3-24.2,2.7-27.7,22.9-42.1c6.3-6.1,4.5-21.7,19.8-19c9.4-3.4,13.6-15.1,21.4-19.1
		c7-3.4,32.9-6.9,38.7-1.1c21.5-24.3,33.6,5.8,48.1,6.9c18.8-2.9,24.8,14.8,29.3,16.6c18.9-3.7,15.4,12.7,20.9,19.3
		c15,9.7,20.4,29.6,19.4,35.7c14.4,6.3,19.3,15.8,6.3,26.3c-0.2,7.2,5.8,24.2-2,25.6c3.6,7.1,3.6,27.1-8.8,36.7
		c-7.6,10.1-7.7,31-18.2,25.3c-6,10.7-7.3,17.8-14,17.4c2.8,7.1-12,8.6-12,8.6c-12.5,3.6-1.5,8.8-13.5,8.2
		C235.6,927.4,231.1,929.8,231.1,929.8z"/>
	<path id="path4145" inkscape:connector-curvature="0" sodipodi:nodetypes="ccc" class="st2" d="M80.8,757.7l108,53.8L163.9,920"/>
	<path id="path4147" inkscape:connector-curvature="0" class="st2" d="M189.2,812.2l-26.3-116.7"/>
	<path id="path4149" inkscape:connector-curvature="0" sodipodi:nodetypes="cc" class="st2" d="M189.2,811.1l72.5-89.8"/>
	<path id="path4151" inkscape:connector-curvature="0" sodipodi:nodetypes="ccc" class="st2" d="M189.1,811.4l116.4-7.6l-0.5-0.5"/>
	<path id="path4153" inkscape:connector-curvature="0" class="st2" d="M189.2,811.7L300,859.2"/>
	<text transform="matrix(1 0 0 1 100.2574 840.7353)" class="st3 st4 st5">HTML5</text>
	<text transform="matrix(1 0 0 1 195.2117 864.7264)" class="st3 st4 st6">CSS3</text>
	<text transform="matrix(0.7538 0.6571 -0.6571 0.7538 105.4647 746.2601)" class="st3 st4 st5">Javascript</text>
	<text transform="matrix(0.2436 -0.9699 0.9699 0.2436 198.937 776.3362)" class="st3 st4 st5">Illustrator</text>
	<text transform="matrix(0.9063 -0.4226 0.4226 0.9063 219.6928 799.1895)" class="st3 st4 st5">Photoshop</text>
	<text transform="matrix(0.9848 0.1736 -0.1736 0.9848 228.1426 822.256)" class="st3 st4 st5">Wordpress</text>
	<path id="rightEye" inkscape:connector-curvature="0" sodipodi:nodetypes="cc" class="st7" d="M159.2,934.5
		c7.3,3.6,10.3,3.2,16.4,0.1"/>
	<path id="leftEye" inkscape:connector-curvature="0" sodipodi:nodetypes="cc" class="st7" d="M196.3,934.6
		c5.6,3.4,10.9,2.6,16.3,0.2"/>
	<path id="nose" inkscape:connector-curvature="0" sodipodi:nodetypes="cccccc" class="st8" d="M177.4,944.3c-2.8,1.3,0.6,5.1,1.9,3
		 M180.9,946.9c1.1,4.1,8,5,10.1-0.3 M192.5,947.7c2.1,1.1,4.2-0.6,2.7-2.9"/>
	<path id="mouth_2_" inkscape:connector-curvature="0" sodipodi:nodetypes="cc" class="st9" d="M169.2,959.9
		c11.9,5.1,23.3,2.9,33.5,0.1c-3-0.2-8.9-1.7-12.8-3.5c-1.6,1.3-2.5,1.7-4.4,1.8c-2.1-0.3-2.1-0.5-4.3-1.8
		C177.9,958.5,169.2,959.9,169.2,959.9z"/>
	<path id="path4203" inkscape:connector-curvature="0" sodipodi:nodetypes="cc" class="st2" d="M188.6,811L117,718.1"/>
	<text transform="matrix(0.4226 0.9063 -0.9063 0.4226 138.1609 714.7759)" class="st3 st4 st5">AngularJS</text>
</g>
<path class="st10" d="M100.7,271.7c0,0,9.3,3.3,16.3,2.9c5.6-0.3,11.6-1.5,17.2-2.8c0.2-0.1-3.3,3.5-7.9,5.5
	c-5.6,3-13.8,2.4-16.8,0.7S100.7,271.7,100.7,271.7z"/>
<g>
	<path d="M143.8,241.5c-2.1-3.6-8.6-2.5-16.1,1.3l-0.8-2c3.2-1.2,14.1-4.8,17.1,0.5L143.8,241.5z"/>
</g>
<g>
	<path d="M90.8,242.3l-0.5-0.2c4.5-3.7,9.6-5,18.3-1.6l-0.7,2.3C102,240.6,98.9,237.9,90.8,242.3z"/>
</g>
<path class="st11" d="M153,238c0.3,0.7,4.5,10.3,0.7,18.6c-3.5,9.5-5,11.7-8.6,14.9c-5,5-15.8,12.7-19.6,14.7
	c-1.4,0.7-3.2,1.3-4.9,1.8c-3,0.8-8.7,0.6-8.7,0.6c0,0.5,0.2,1.6,4.1,1.9c2.4,0.2,5.1-0.1,6.4-0.6c0.4-0.2,9.3-3.6,18.6-11
	c4.9-3.8,9.7-7.7,13.3-13.8c1.1-2.4,1.3-5.9,2.8-8.6c1.8,0.3,3.4,0.6,5.6-0.3c2.3-1,4.5-3.5,4.9-8.5c-0.1-3.7-1.6-6-3.4-6.5
	c-0.7,0.3-1.2,0.4-1.7,0.8c-3.4-1.1-5.4-6.3-5.4-6.3S153.5,237.7,153,238z"/>
<path class="st11" d="M81.9,233.9l-3.2,2.8v2.6c0,0-3.1-0.8-5.4,1.9c-2,2.3-2,4-2.2,5.3c-0.1,1.8-0.1,5,2.1,7.7s5.5,3,6.1,3.1
	s3,0,3,0C80.1,252.3,79.4,246.4,81.9,233.9z"/>
</svg>
