<?xml version="1.0" encoding="utf-8"?>
<!-- Generator: Adobe Illustrator 20.0.0, SVG Export Plug-In . SVG Version: 6.00 Build 0)  -->
<svg version="1.1"
	 id="svg2" inkscape:export-filename="C:\xampp\htdocs\Portfolio\img\FroPieGraph.png" inkscape:export-xdpi="90" inkscape:export-ydpi="90" inkscape:version="0.91 r13725" sodipodi:docname="FroPieGraph.svg" xmlns:cc="http://creativecommons.org/ns#" xmlns:dc="http://purl.org/dc/elements/1.1/" xmlns:inkscape="http://www.inkscape.org/namespaces/inkscape" xmlns:rdf="http://www.w3.org/1999/02/22-rdf-syntax-ns#" xmlns:sodipodi="http://sodipodi.sourceforge.net/DTD/sodipodi-0.dtd" xmlns:svg="http://www.w3.org/2000/svg"
	 xmlns="http://www.w3.org/2000/svg" xmlns:xlink="http://www.w3.org/1999/xlink" x="0px" y="0px" viewBox="0 0 245.9 283.7"
	 style="enable-background:new 0 0 245.9 283.7;" xml:space="preserve">
<style type="text/css">
	.st0{fill:#683B29;stroke:#000000;}
	.st1{fill:url(#fro_1_);stroke:#000000;}
	.st2{fill:none;stroke:#000000;}
	.st3{fill:#7E6E63;}
	.st4{font-family:'ArialMT';}
	.st5{font-size:12.5px;}
	.st6{font-size:13.75px;}
	.st7{fill:none;stroke:#000000;stroke-linecap:round;stroke-linejoin:round;}
	.st8{fill:none;stroke:#000000;stroke-width:0.5;stroke-linecap:round;}
	.st9{fill:none;stroke:#000000;stroke-linecap:round;}
</style>
<sodipodi:namedview  bordercolor="#666666" borderopacity="1.0" fit-margin-bottom="0" fit-margin-left="0" fit-margin-right="0" fit-margin-top="0" id="base" inkscape:current-layer="svg2" inkscape:cx="103.69141" inkscape:cy="143.1251" inkscape:document-units="px" inkscape:pageopacity="0.0" inkscape:pageshadow="2" inkscape:window-height="1018" inkscape:window-maximized="1" inkscape:window-width="1920" inkscape:window-x="-8" inkscape:window-y="-8" inkscape:zoom="2.8284271" pagecolor="#ffffff" showgrid="false" showguides="false" units="px">
	</sodipodi:namedview>
<g id="layer1" transform="translate(-68.558456,-688.17793)" inkscape:groupmode="layer" inkscape:label="Layer 1">
	<path id="face" inkscape:connector-curvature="0" sodipodi:nodetypes="csccccc" class="st0" d="M233.1,921.2
		c3.8,0.7-2.9,7.7-0.4,7.4c9.8-1.3,6,16.1-2.4,13.4c-3.1,17.7-28,30.2-45,29.3c-20.3-1.9-33.1-13.7-38.9-29
		c-12.3,2-11.6-16.3-2.2-15.2c0,0,0.1-6.1,0.1-8.8"/>
	
		<radialGradient id="fro_1_" cx="258.062" cy="156.4954" r="122.9451" gradientTransform="matrix(1 0 0 -0.9762 -68.5585 966.9756)" gradientUnits="userSpaceOnUse">
		<stop  offset="0" style="stop-color:#5C4536"/>
		<stop  offset="0.1674" style="stop-color:#543F32"/>
		<stop  offset="0.5384" style="stop-color:#4B3A30"/>
		<stop  offset="0.826" style="stop-color:#3E2E27"/>
		<stop  offset="0.9163" style="stop-color:#3B2727"/>
		<stop  offset="1" style="stop-color:#372E2E"/>
	</radialGradient>
	<path id="fro" inkscape:connector-curvature="0" sodipodi:nodetypes="ccccccccccccccccccccccccccccccccccccc" class="st1" d="
		M233.1,927.6c-1.5-0.2-2.9-1.2-5.1-4.4c-4.3,3.2-10.3,3.3-15.5-0.1c-2.5,1.5-7.4,2.9-12.6-1.5c-6.7,3.3-10,1.9-14.2-0.7
		c-6,3.1-7.8,1.5-12,0.1c-1.5,1.3-7.8,2.8-10.2-0.8c-5.8,1.6-6.2,5.7-13.2-0.4c-2.2,2.3-5.8,6.6-9.9,6.2c-4.9-0.4-11.3-3.3-10.7-7.3
		c-4-0.1-10.7,2.1-15.2-10.6l-11.4-5.3c-1.8-1.2-3.9-7.9-4.5-10.8c-1.5-5.5-5.2-3.1-9.8-7.7c-1.4-1.7,0.8-11.2-3.4-14.4
		c-7.1-4.3-9.2-9.7-8.7-21.4c-6.4-4.1-2.4-9.6-2.3-12.2c-4.6-6.7-4.2-11.7-2.4-18.4c-5-9.2-3-12.6,2.2-17.5
		c-4.7-14.2,0.9-8.8,5.6-21.2c-4.3-24.2,2.7-27.7,22.9-42.1c6.3-6.1,4.5-21.7,19.8-19c9.4-3.4,13.6-15.1,21.4-19.1
		c7-3.4,32.9-6.9,38.7-1.1c21.5-24.3,33.6,5.8,48.1,6.9c18.8-2.9,24.8,14.8,29.3,16.6c18.9-3.7,15.4,12.7,20.9,19.3
		c15,9.7,20.4,29.6,19.4,35.7c14.4,6.3,19.3,15.8,6.3,26.3c-0.2,7.2,5.8,24.2-2,25.6c3.6,7.1,3.6,27.1-8.8,36.7
		c-7.6,10.1-7.7,31-18.2,25.3c-6,10.7-7.3,17.8-14,17.4c2.8,7.1-12,8.6-12,8.6c-12.5,3.6,3.8,9.3-8.1,8.7c-2.4,2.8-2.3,1-5.7,0.7
		C235.1,927.1,233.6,928.1,233.1,927.6L233.1,927.6z"/>
	<path id="path4145" inkscape:connector-curvature="0" sodipodi:nodetypes="ccc" class="st2" d="M79.7,788.2l109,23.3L163.9,920"/>
	<path id="path4147" inkscape:connector-curvature="0" class="st2" d="M189.2,812.2l-40-114.7"/>
	<path id="path4149" inkscape:connector-curvature="0" sodipodi:nodetypes="cc" class="st2" d="M189.2,811.1l88.5-76.9"/>
	<path id="path4153" inkscape:connector-curvature="0" class="st2" d="M189.2,811.7L300,859.2"/>
	<text transform="matrix(1 0 0 1 100.2576 840.7352)" class="st3 st4 st5">HTML5</text>
	<text transform="matrix(1 0 0 1 195.212 864.7263)" class="st3 st4 st6">CSS3</text>
	<text transform="matrix(0.7538 0.6571 -0.6571 0.7538 109 747.26)" class="st3 st4 st5">Javascript</text>
	<text transform="matrix(0.2436 -0.9699 0.9699 0.2436 198.9373 776.3368)" class="st3 st4 st5">Illustrator</text>
	<text transform="matrix(0.9063 -0.4226 0.4226 0.9063 233.6932 818.1896)" class="st3 st4 st5">Photoshop</text>
	<path id="rightEye" inkscape:connector-curvature="0" sodipodi:nodetypes="cc" class="st7" d="M162.4,934
		c7.3,3.6,10.3,3.2,16.4,0.1"/>
	<path id="leftEye" inkscape:connector-curvature="0" sodipodi:nodetypes="cc" class="st7" d="M199.8,934.6
		c5.6,3.4,10.9,2.6,16.3,0.2"/>
	<path id="nose" inkscape:connector-curvature="0" sodipodi:nodetypes="cccccc" class="st8" d="M176.3,945c-2.8,1.3,0.6,5.1,1.9,3
		 M179.9,947.5c0.9,2.4,8,5,10.1-0.3 M191.4,948.3c2.1,1.1,4.2-0.6,2.7-2.9"/>
	<path id="mouth" inkscape:connector-curvature="0" sodipodi:nodetypes="cc" class="st9" d="M168.6,957.2c9.9,4.6,20.1,5.1,33.5,0.1
		"/>
	<path id="path4203_2_" inkscape:connector-curvature="0" sodipodi:nodetypes="cc" class="st2" d="M117,718.1"/>
	<path id="path4203_1_" inkscape:connector-curvature="0" sodipodi:nodetypes="cc" class="st2" d="M188.6,811"/>
</g>
</svg>
